
        <!DOCTYPE html>
        <html lang="ar" dir="rtl">
        <head>
            <meta charset="UTF-8">
            <meta name="viewport" content="width=device-width, initial-scale=1.0">
            <title>Mr. Robot - Player</title>
            <style>
                body { background: #050505; color: white; font-family: 'Segoe UI', sans-serif; margin: 0; overflow-x: hidden; }
                
                /* منطقة المشغل */
                .video-container { 
                    width: 100%; background: #000; position: sticky; top: 0; z-index: 999; 
                    box-shadow: 0 5px 20px rgba(0,0,0,0.9); display: none; 
                }
                video { width: 100%; max-height: 70vh; outline: none; }

                .hero { 
                    background: linear-gradient(to bottom, rgba(5,5,5,0.2), #050505), url('https://image.tmdb.org/t/p/w600_and_h900_bestv2/oKIBhzZzDX07SoE2bOLhq2EE8rf.jpg'); 
                    background-size: cover; background-position: center; padding: 60px 20px; text-align: center; 
                }
                .poster { width: 180px; border-radius: 10px; box-shadow: 0 0 30px rgba(0,0,0,0.8); }
                
                .content { padding: 20px; max-width: 900px; margin: auto; }
                
                h1 { font-size: 2.5rem; margin: 15px 0; }
                select { 
                    width: 100%; padding: 18px; background: #e50914; color: white; border: none; 
                    border-radius: 8px; font-size: 1.1rem; font-weight: bold; cursor: pointer; 
                }

                .ep-list { margin-top: 25px; }
                .episode { 
                    background: #121212; margin-bottom: 10px; padding: 18px; border-radius: 8px; 
                    display: flex; justify-content: space-between; align-items: center; 
                    cursor: pointer; border: 1px solid #222; transition: 0.3s;
                }
                .episode:hover { background: #222; border-color: #e50914; }
                .play-btn { background: #e50914; padding: 8px 15px; border-radius: 50px; font-size: 0.9rem; }
                
                .active-episode { border-color: #e50914; background: #1a0000; }
            </style>
        </head>
        <body>

            <div id="videoContainer" class="video-container">
                <video id="mainPlayer" controls autoplay>
                    <source id="videoSource" src="" type="video/mp4">
                    متصفحك لا يدعم تشغيل الفيديو.
                </video>
                <div style="padding: 10px; background: #111; text-align: center;">
                    <strong id="nowPlaying">جاري التشغيل...</strong>
                </div>
            </div>

            <div class="hero">
                <img src="https://image.tmdb.org/t/p/w600_and_h900_bestv2/oKIBhzZzDX07SoE2bOLhq2EE8rf.jpg" class="poster">
                <h1 id="seriesTitle">Mr. Robot</h1>
                <p style="color: #bbb; max-width: 700px; margin: auto;">A contemporary and culturally resonant drama about a young programmer, Elliot, who suffers from a debilitating anti-social disorder and decides that he can only connect to people by hacking them. He wields his skills as a weapon to protect the people that he cares about. Elliot will find himself in the intersection between a cybersecurity firm he works for and the underworld organizations that are recruiting him to bring down corporate America.</p>
            </div>
            
            <div class="content">
                <select id="seasonSelector" onchange="loadEpisodes()">
                    <option value="">-- اختر الموسم --</option>
                </select>

                <div id="episodesArea" class="ep-list"></div>
            </div>

            <script>
                const episodesData = {"1": [{"id": "258377", "episode_num": 1, "title": "Mr  Robot.S01.E01", "container_extension": "mp4", "info": {"duration_secs": 3895, "duration": "01:04:55", "video": {"index": 0, "codec_name": "h264", "codec_long_name": "H.264 / AVC / MPEG-4 AVC / MPEG-4 part 10", "profile": "High", "codec_type": "video", "codec_time_base": "48697/2434800", "codec_tag_string": "avc1", "codec_tag": "0x31637661", "width": 848, "height": 480, "coded_width": 848, "coded_height": 480, "has_b_frames": 2, "sample_aspect_ratio": "900:901", "display_aspect_ratio": "30:17", "pix_fmt": "yuv420p", "level": 30, "chroma_location": "left", "refs": 1, "is_avc": "true", "nal_length_size": "4", "r_frame_rate": "25/1", "avg_frame_rate": "1217400/48697", "time_base": "1/12800", "start_pts": 0, "start_time": "0.000000", "duration_ts": 49865728, "duration": "3895.760000", "bit_rate": "769900", "bits_per_raw_sample": "8", "nb_frames": "97392", "disposition": {"default": 1, "dub": 0, "original": 0, "comment": 0, "lyrics": 0, "karaoke": 0, "forced": 0, "hearing_impaired": 0, "visual_impaired": 0, "clean_effects": 0, "attached_pic": 0, "timed_thumbnails": 0}, "tags": {"language": "und", "handler_name": "VideoHandler"}}, "audio": {"index": 1, "codec_name": "aac", "codec_long_name": "AAC (Advanced Audio Coding)", "profile": "LC", "codec_type": "audio", "codec_time_base": "1/44100", "codec_tag_string": "mp4a", "codec_tag": "0x6134706d", "sample_fmt": "fltp", "sample_rate": "44100", "channels": 2, "channel_layout": "stereo", "bits_per_sample": 0, "r_frame_rate": "0/0", "avg_frame_rate": "0/0", "time_base": "1/44100", "start_pts": 0, "start_time": "0.000000", "duration_ts": 171803633, "duration": "3895.773991", "bit_rate": "97175", "max_bit_rate": "97175", "nb_frames": "167778", "disposition": {"default": 1, "dub": 0, "original": 0, "comment": 0, "lyrics": 0, "karaoke": 0, "forced": 0, "hearing_impaired": 0, "visual_impaired": 0, "clean_effects": 0, "attached_pic": 0, "timed_thumbnails": 0}, "tags": {"language": "und", "handler_name": "SoundHandler"}}, "bitrate": 874}, "custom_sid": null, "added": "1647298262", "season": 1, "direct_source": ""}, {"id": "258378", "episode_num": 2, "title": "Mr  Robot.S01.E02", "container_extension": "mp4", "info": {"duration_secs": 2823, "duration": "00:47:03", "video": {"index": 0, "codec_name": "h264", "codec_long_name": "H.264 / AVC / MPEG-4 AVC / MPEG-4 part 10", "profile": "High", "codec_type": "video", "codec_time_base": "17649/882425", "codec_tag_string": "avc1", "codec_tag": "0x31637661", "width": 848, "height": 480, "coded_width": 848, "coded_height": 480, "has_b_frames": 2, "pix_fmt": "yuv420p", "level": 30, "chroma_location": "left", "refs": 1, "is_avc": "true", "nal_length_size": "4", "r_frame_rate": "25/1", "avg_frame_rate": "882425/35298", "time_base": "1/12800", "start_pts": 0, "start_time": "0.000000", "duration_ts": 36145152, "duration": "2823.840000", "bit_rate": "768138", "bits_per_raw_sample": "8", "nb_frames": "70594", "disposition": {"default": 1, "dub": 0, "original": 0, "comment": 0, "lyrics": 0, "karaoke": 0, "forced": 0, "hearing_impaired": 0, "visual_impaired": 0, "clean_effects": 0, "attached_pic": 0, "timed_thumbnails": 0}, "tags": {"language": "und", "handler_name": "VideoHandler"}}, "audio": {"index": 1, "codec_name": "aac", "codec_long_name": "AAC (Advanced Audio Coding)", "profile": "LC", "codec_type": "audio", "codec_time_base": "1/44100", "codec_tag_string": "mp4a", "codec_tag": "0x6134706d", "sample_fmt": "fltp", "sample_rate": "44100", "channels": 2, "channel_layout": "stereo", "bits_per_sample": 0, "r_frame_rate": "0/0", "avg_frame_rate": "0/0", "time_base": "1/44100", "start_pts": 0, "start_time": "0.000000", "duration_ts": 124532711, "duration": "2823.870998", "bit_rate": "96954", "max_bit_rate": "96954", "nb_frames": "121615", "disposition": {"default": 1, "dub": 0, "original": 0, "comment": 0, "lyrics": 0, "karaoke": 0, "forced": 0, "hearing_impaired": 0, "visual_impaired": 0, "clean_effects": 0, "attached_pic": 0, "timed_thumbnails": 0}, "tags": {"language": "und", "handler_name": "SoundHandler"}}, "bitrate": 873}, "custom_sid": null, "added": "1647298262", "season": 1, "direct_source": ""}, {"id": "258379", "episode_num": 3, "title": "Mr  Robot.S01.E03", "container_extension": "mp4", "info": {"duration_secs": 2702, "duration": "00:45:02", "video": {"index": 0, "codec_name": "h264", "codec_long_name": "H.264 / AVC / MPEG-4 AVC / MPEG-4 part 10", "profile": "High", "codec_type": "video", "codec_time_base": "16892/844575", "codec_tag_string": "avc1", "codec_tag": "0x31637661", "width": 848, "height": 480, "coded_width": 848, "coded_height": 480, "has_b_frames": 2, "sample_aspect_ratio": "900:901", "display_aspect_ratio": "30:17", "pix_fmt": "yuv420p", "level": 30, "chroma_location": "left", "refs": 1, "is_avc": "true", "nal_length_size": "4", "r_frame_rate": "25/1", "avg_frame_rate": "844575/33784", "time_base": "1/12800", "start_pts": 0, "start_time": "0.000000", "duration_ts": 34594816, "duration": "2702.720000", "bit_rate": "766897", "bits_per_raw_sample": "8", "nb_frames": "67566", "disposition": {"default": 1, "dub": 0, "original": 0, "comment": 0, "lyrics": 0, "karaoke": 0, "forced": 0, "hearing_impaired": 0, "visual_impaired": 0, "clean_effects": 0, "attached_pic": 0, "timed_thumbnails": 0}, "tags": {"language": "und", "handler_name": "VideoHandler"}}, "audio": {"index": 1, "codec_name": "aac", "codec_long_name": "AAC (Advanced Audio Coding)", "profile": "LC", "codec_type": "audio", "codec_time_base": "1/44100", "codec_tag_string": "mp4a", "codec_tag": "0x6134706d", "sample_fmt": "fltp", "sample_rate": "44100", "channels": 2, "channel_layout": "stereo", "bits_per_sample": 0, "r_frame_rate": "0/0", "avg_frame_rate": "0/0", "time_base": "1/44100", "start_pts": 0, "start_time": "0.000000", "duration_ts": 119191540, "duration": "2702.756009", "bit_rate": "96965", "max_bit_rate": "96965", "nb_frames": "116399", "disposition": {"default": 1, "dub": 0, "original": 0, "comment": 0, "lyrics": 0, "karaoke": 0, "forced": 0, "hearing_impaired": 0, "visual_impaired": 0, "clean_effects": 0, "attached_pic": 0, "timed_thumbnails": 0}, "tags": {"language": "und", "handler_name": "SoundHandler"}}, "bitrate": 871}, "custom_sid": null, "added": "1647298262", "season": 1, "direct_source": ""}, {"id": "258380", "episode_num": 4, "title": "Mr  Robot.S01.E04", "container_extension": "mp4", "info": {"duration_secs": 2702, "duration": "00:45:02", "video": {"index": 0, "codec_name": "h264", "codec_long_name": "H.264 / AVC / MPEG-4 AVC / MPEG-4 part 10", "profile": "High", "codec_type": "video", "codec_time_base": "16892/844575", "codec_tag_string": "avc1", "codec_tag": "0x31637661", "width": 848, "height": 480, "coded_width": 848, "coded_height": 480, "has_b_frames": 2, "sample_aspect_ratio": "900:901", "display_aspect_ratio": "30:17", "pix_fmt": "yuv420p", "level": 30, "chroma_location": "left", "refs": 1, "is_avc": "true", "nal_length_size": "4", "r_frame_rate": "25/1", "avg_frame_rate": "844575/33784", "time_base": "1/12800", "start_pts": 0, "start_time": "0.000000", "duration_ts": 34594816, "duration": "2702.720000", "bit_rate": "765812", "bits_per_raw_sample": "8", "nb_frames": "67566", "disposition": {"default": 1, "dub": 0, "original": 0, "comment": 0, "lyrics": 0, "karaoke": 0, "forced": 0, "hearing_impaired": 0, "visual_impaired": 0, "clean_effects": 0, "attached_pic": 0, "timed_thumbnails": 0}, "tags": {"language": "und", "handler_name": "VideoHandler"}}, "audio": {"index": 1, "codec_name": "aac", "codec_long_name": "AAC (Advanced Audio Coding)", "profile": "LC", "codec_type": "audio", "codec_time_base": "1/44100", "codec_tag_string": "mp4a", "codec_tag": "0x6134706d", "sample_fmt": "fltp", "sample_rate": "44100", "channels": 2, "channel_layout": "stereo", "bits_per_sample": 0, "r_frame_rate": "0/0", "avg_frame_rate": "0/0", "time_base": "1/44100", "start_pts": 0, "start_time": "0.000000", "duration_ts": 119191540, "duration": "2702.756009", "bit_rate": "96924", "max_bit_rate": "96924", "nb_frames": "116399", "disposition": {"default": 1, "dub": 0, "original": 0, "comment": 0, "lyrics": 0, "karaoke": 0, "forced": 0, "hearing_impaired": 0, "visual_impaired": 0, "clean_effects": 0, "attached_pic": 0, "timed_thumbnails": 0}, "tags": {"language": "und", "handler_name": "SoundHandler"}}, "bitrate": 870}, "custom_sid": null, "added": "1647298262", "season": 1, "direct_source": ""}, {"id": "258381", "episode_num": 5, "title": "Mr  Robot.S01.E05", "container_extension": "mp4", "info": {"duration_secs": 2683, "duration": "00:44:43", "video": {"index": 0, "codec_name": "h264", "codec_long_name": "H.264 / AVC / MPEG-4 AVC / MPEG-4 part 10", "profile": "High", "codec_type": "video", "codec_time_base": "67083/3354050", "codec_tag_string": "avc1", "codec_tag": "0x31637661", "width": 848, "height": 480, "coded_width": 848, "coded_height": 480, "has_b_frames": 2, "sample_aspect_ratio": "900:901", "display_aspect_ratio": "30:17", "pix_fmt": "yuv420p", "level": 30, "chroma_location": "left", "refs": 1, "is_avc": "true", "nal_length_size": "4", "r_frame_rate": "25/1", "avg_frame_rate": "1677025/67083", "time_base": "1/12800", "start_pts": 0, "start_time": "0.000000", "duration_ts": 34346496, "duration": "2683.320000", "bit_rate": "764330", "bits_per_raw_sample": "8", "nb_frames": "67081", "disposition": {"default": 1, "dub": 0, "original": 0, "comment": 0, "lyrics": 0, "karaoke": 0, "forced": 0, "hearing_impaired": 0, "visual_impaired": 0, "clean_effects": 0, "attached_pic": 0, "timed_thumbnails": 0}, "tags": {"language": "und", "handler_name": "VideoHandler"}}, "audio": {"index": 1, "codec_name": "aac", "codec_long_name": "AAC (Advanced Audio Coding)", "profile": "LC", "codec_type": "audio", "codec_time_base": "1/44100", "codec_tag_string": "mp4a", "codec_tag": "0x6134706d", "sample_fmt": "fltp", "sample_rate": "44100", "channels": 2, "channel_layout": "stereo", "bits_per_sample": 0, "r_frame_rate": "0/0", "avg_frame_rate": "0/0", "time_base": "1/44100", "start_pts": 0, "start_time": "0.000000", "duration_ts": 118336485, "duration": "2683.367007", "bit_rate": "97198", "max_bit_rate": "97198", "nb_frames": "115564", "disposition": {"default": 1, "dub": 0, "original": 0, "comment": 0, "lyrics": 0, "karaoke": 0, "forced": 0, "hearing_impaired": 0, "visual_impaired": 0, "clean_effects": 0, "attached_pic": 0, "timed_thumbnails": 0}, "tags": {"language": "und", "handler_name": "SoundHandler"}}, "bitrate": 869}, "custom_sid": null, "added": "1647298262", "season": 1, "direct_source": ""}, {"id": "258382", "episode_num": 6, "title": "Mr  Robot.S01.E06", "container_extension": "mp4", "info": {"duration_secs": 2674, "duration": "00:44:34", "video": {"index": 0, "codec_name": "h264", "codec_long_name": "H.264 / AVC / MPEG-4 AVC / MPEG-4 part 10", "profile": "High", "codec_type": "video", "codec_time_base": "33427/1671300", "codec_tag_string": "avc1", "codec_tag": "0x31637661", "width": 848, "height": 480, "coded_width": 848, "coded_height": 480, "has_b_frames": 2, "pix_fmt": "yuv420p", "level": 30, "chroma_location": "left", "refs": 1, "is_avc": "true", "nal_length_size": "4", "r_frame_rate": "25/1", "avg_frame_rate": "835650/33427", "time_base": "1/12800", "start_pts": 0, "start_time": "0.000000", "duration_ts": 34229248, "duration": "2674.160000", "bit_rate": "767902", "bits_per_raw_sample": "8", "nb_frames": "66852", "disposition": {"default": 1, "dub": 0, "original": 0, "comment": 0, "lyrics": 0, "karaoke": 0, "forced": 0, "hearing_impaired": 0, "visual_impaired": 0, "clean_effects": 0, "attached_pic": 0, "timed_thumbnails": 0}, "tags": {"language": "und", "handler_name": "VideoHandler"}}, "audio": {"index": 1, "codec_name": "aac", "codec_long_name": "AAC (Advanced Audio Coding)", "profile": "LC", "codec_type": "audio", "codec_time_base": "1/44100", "codec_tag_string": "mp4a", "codec_tag": "0x6134706d", "sample_fmt": "fltp", "sample_rate": "44100", "channels": 2, "channel_layout": "stereo", "bits_per_sample": 0, "r_frame_rate": "0/0", "avg_frame_rate": "0/0", "time_base": "1/44100", "start_pts": 0, "start_time": "0.000000", "duration_ts": 117930985, "duration": "2674.171995", "bit_rate": "96936", "max_bit_rate": "96936", "nb_frames": "115168", "disposition": {"default": 1, "dub": 0, "original": 0, "comment": 0, "lyrics": 0, "karaoke": 0, "forced": 0, "hearing_impaired": 0, "visual_impaired": 0, "clean_effects": 0, "attached_pic": 0, "timed_thumbnails": 0}, "tags": {"language": "und", "handler_name": "SoundHandler"}}, "bitrate": 872}, "custom_sid": null, "added": "1647298262", "season": 1, "direct_source": ""}, {"id": "258383", "episode_num": 7, "title": "Mr  Robot.S01.E07", "container_extension": "mp4", "info": {"duration_secs": 2694, "duration": "00:44:54", "video": {"index": 0, "codec_name": "h264", "codec_long_name": "H.264 / AVC / MPEG-4 AVC / MPEG-4 part 10", "profile": "High", "codec_type": "video", "codec_time_base": "67353/3367550", "codec_tag_string": "avc1", "codec_tag": "0x31637661", "width": 848, "height": 480, "coded_width": 848, "coded_height": 480, "has_b_frames": 2, "sample_aspect_ratio": "900:901", "display_aspect_ratio": "30:17", "pix_fmt": "yuv420p", "level": 30, "chroma_location": "left", "refs": 1, "is_avc": "true", "nal_length_size": "4", "r_frame_rate": "25/1", "avg_frame_rate": "1683775/67353", "time_base": "1/12800", "start_pts": 0, "start_time": "0.000000", "duration_ts": 34484736, "duration": "2694.120000", "bit_rate": "760884", "bits_per_raw_sample": "8", "nb_frames": "67351", "disposition": {"default": 1, "dub": 0, "original": 0, "comment": 0, "lyrics": 0, "karaoke": 0, "forced": 0, "hearing_impaired": 0, "visual_impaired": 0, "clean_effects": 0, "attached_pic": 0, "timed_thumbnails": 0}, "tags": {"language": "und", "handler_name": "VideoHandler"}}, "audio": {"index": 1, "codec_name": "aac", "codec_long_name": "AAC (Advanced Audio Coding)", "profile": "LC", "codec_type": "audio", "codec_time_base": "1/44100", "codec_tag_string": "mp4a", "codec_tag": "0x6134706d", "sample_fmt": "fltp", "sample_rate": "44100", "channels": 2, "channel_layout": "stereo", "bits_per_sample": 0, "r_frame_rate": "0/0", "avg_frame_rate": "0/0", "time_base": "1/44100", "start_pts": 0, "start_time": "0.000000", "duration_ts": 118811618, "duration": "2694.140998", "bit_rate": "96847", "max_bit_rate": "96847", "nb_frames": "116028", "disposition": {"default": 1, "dub": 0, "original": 0, "comment": 0, "lyrics": 0, "karaoke": 0, "forced": 0, "hearing_impaired": 0, "visual_impaired": 0, "clean_effects": 0, "attached_pic": 0, "timed_thumbnails": 0}, "tags": {"language": "und", "handler_name": "SoundHandler"}}, "bitrate": 865}, "custom_sid": null, "added": "1647298262", "season": 1, "direct_source": ""}, {"id": "258384", "episode_num": 8, "title": "Mr  Robot.S01.E08", "container_extension": "mp4", "info": {"duration_secs": 2702, "duration": "00:45:02", "video": {"index": 0, "codec_name": "h264", "codec_long_name": "H.264 / AVC / MPEG-4 AVC / MPEG-4 part 10", "profile": "High", "codec_type": "video", "codec_time_base": "67567/3378250", "codec_tag_string": "avc1", "codec_tag": "0x31637661", "width": 848, "height": 480, "coded_width": 848, "coded_height": 480, "has_b_frames": 2, "pix_fmt": "yuv420p", "level": 30, "chroma_location": "left", "refs": 1, "is_avc": "true", "nal_length_size": "4", "r_frame_rate": "25/1", "avg_frame_rate": "1689125/67567", "time_base": "1/12800", "start_pts": 0, "start_time": "0.000000", "duration_ts": 34594304, "duration": "2702.680000", "bit_rate": "765547", "bits_per_raw_sample": "8", "nb_frames": "67565", "disposition": {"default": 1, "dub": 0, "original": 0, "comment": 0, "lyrics": 0, "karaoke": 0, "forced": 0, "hearing_impaired": 0, "visual_impaired": 0, "clean_effects": 0, "attached_pic": 0, "timed_thumbnails": 0}, "tags": {"language": "und", "handler_name": "VideoHandler"}}, "audio": {"index": 1, "codec_name": "aac", "codec_long_name": "AAC (Advanced Audio Coding)", "profile": "LC", "codec_type": "audio", "codec_time_base": "1/44100", "codec_tag_string": "mp4a", "codec_tag": "0x6134706d", "sample_fmt": "fltp", "sample_rate": "44100", "channels": 2, "channel_layout": "stereo", "bits_per_sample": 0, "r_frame_rate": "0/0", "avg_frame_rate": "0/0", "time_base": "1/44100", "start_pts": 0, "start_time": "0.000000", "duration_ts": 119190525, "duration": "2702.732993", "bit_rate": "96992", "max_bit_rate": "96992", "nb_frames": "116398", "disposition": {"default": 1, "dub": 0, "original": 0, "comment": 0, "lyrics": 0, "karaoke": 0, "forced": 0, "hearing_impaired": 0, "visual_impaired": 0, "clean_effects": 0, "attached_pic": 0, "timed_thumbnails": 0}, "tags": {"language": "und", "handler_name": "SoundHandler"}}, "bitrate": 870}, "custom_sid": null, "added": "1647298262", "season": 1, "direct_source": ""}, {"id": "258385", "episode_num": 9, "title": "Mr  Robot.S01.E09", "container_extension": "mp4", "info": {"duration_secs": 2942, "duration": "00:49:02", "video": {"index": 0, "codec_name": "h264", "codec_long_name": "H.264 / AVC / MPEG-4 AVC / MPEG-4 part 10", "profile": "High", "codec_type": "video", "codec_time_base": "18393/919625", "codec_tag_string": "avc1", "codec_tag": "0x31637661", "width": 848, "height": 480, "coded_width": 848, "coded_height": 480, "has_b_frames": 2, "sample_aspect_ratio": "900:901", "display_aspect_ratio": "30:17", "pix_fmt": "yuv420p", "level": 30, "chroma_location": "left", "refs": 1, "is_avc": "true", "nal_length_size": "4", "r_frame_rate": "25/1", "avg_frame_rate": "919625/36786", "time_base": "1/12800", "start_pts": 0, "start_time": "0.000000", "duration_ts": 37668864, "duration": "2942.880000", "bit_rate": "761807", "bits_per_raw_sample": "8", "nb_frames": "73570", "disposition": {"default": 1, "dub": 0, "original": 0, "comment": 0, "lyrics": 0, "karaoke": 0, "forced": 0, "hearing_impaired": 0, "visual_impaired": 0, "clean_effects": 0, "attached_pic": 0, "timed_thumbnails": 0}, "tags": {"language": "und", "handler_name": "VideoHandler"}}, "audio": {"index": 1, "codec_name": "aac", "codec_long_name": "AAC (Advanced Audio Coding)", "profile": "LC", "codec_type": "audio", "codec_time_base": "1/44100", "codec_tag_string": "mp4a", "codec_tag": "0x6134706d", "sample_fmt": "fltp", "sample_rate": "44100", "channels": 2, "channel_layout": "stereo", "bits_per_sample": 0, "r_frame_rate": "0/0", "avg_frame_rate": "0/0", "time_base": "1/44100", "start_pts": 0, "start_time": "0.000000", "duration_ts": 129782772, "duration": "2942.920000", "bit_rate": "96220", "max_bit_rate": "96220", "nb_frames": "126742", "disposition": {"default": 1, "dub": 0, "original": 0, "comment": 0, "lyrics": 0, "karaoke": 0, "forced": 0, "hearing_impaired": 0, "visual_impaired": 0, "clean_effects": 0, "attached_pic": 0, "timed_thumbnails": 0}, "tags": {"language": "und", "handler_name": "SoundHandler"}}, "bitrate": 865}, "custom_sid": null, "added": "1647298262", "season": 1, "direct_source": ""}, {"id": "258386", "episode_num": 10, "title": "Mr  Robot.S01.E10", "container_extension": "mp4", "info": {"duration_secs": 3239, "duration": "00:53:59", "video": {"index": 0, "codec_name": "h264", "codec_long_name": "H.264 / AVC / MPEG-4 AVC / MPEG-4 part 10", "profile": "High", "codec_type": "video", "codec_time_base": "16199/809930", "codec_tag_string": "avc1", "codec_tag": "0x31637661", "width": 848, "height": 480, "coded_width": 848, "coded_height": 480, "has_b_frames": 2, "pix_fmt": "yuv420p", "level": 30, "chroma_location": "left", "refs": 1, "is_avc": "true", "nal_length_size": "4", "r_frame_rate": "25/1", "avg_frame_rate": "404965/16199", "time_base": "1/12800", "start_pts": 0, "start_time": "0.000000", "duration_ts": 41469440, "duration": "3239.800000", "bit_rate": "782859", "bits_per_raw_sample": "8", "nb_frames": "80993", "disposition": {"default": 1, "dub": 0, "original": 0, "comment": 0, "lyrics": 0, "karaoke": 0, "forced": 0, "hearing_impaired": 0, "visual_impaired": 0, "clean_effects": 0, "attached_pic": 0, "timed_thumbnails": 0}, "tags": {"language": "und", "handler_name": "VideoHandler"}}, "audio": {"index": 1, "codec_name": "aac", "codec_long_name": "AAC (Advanced Audio Coding)", "profile": "LC", "codec_type": "audio", "codec_time_base": "1/44100", "codec_tag_string": "mp4a", "codec_tag": "0x6134706d", "sample_fmt": "fltp", "sample_rate": "44100", "channels": 2, "channel_layout": "stereo", "bits_per_sample": 0, "r_frame_rate": "0/0", "avg_frame_rate": "0/0", "time_base": "1/44100", "start_pts": 0, "start_time": "0.000000", "duration_ts": 142876679, "duration": "3239.833991", "bit_rate": "97018", "max_bit_rate": "97018", "nb_frames": "139529", "disposition": {"default": 1, "dub": 0, "original": 0, "comment": 0, "lyrics": 0, "karaoke": 0, "forced": 0, "hearing_impaired": 0, "visual_impaired": 0, "clean_effects": 0, "attached_pic": 0, "timed_thumbnails": 0}, "tags": {"language": "und", "handler_name": "SoundHandler"}}, "bitrate": 887}, "custom_sid": null, "added": "1647298262", "season": 1, "direct_source": ""}], "2": [{"id": "258387", "episode_num": 1, "title": "Mr  Robot.S02.E01 + 02", "container_extension": "mp4", "info": {"duration_secs": 4938, "duration": "01:22:18", "video": {"index": 0, "codec_name": "h264", "codec_long_name": "H.264 / AVC / MPEG-4 AVC / MPEG-4 part 10", "profile": "High", "codec_type": "video", "codec_time_base": "2469/123448", "codec_tag_string": "avc1", "codec_tag": "0x31637661", "width": 848, "height": 480, "coded_width": 848, "coded_height": 480, "has_b_frames": 2, "sample_aspect_ratio": "900:901", "display_aspect_ratio": "30:17", "pix_fmt": "yuv420p", "level": 30, "chroma_location": "left", "refs": 1, "is_avc": "true", "nal_length_size": "4", "r_frame_rate": "25/1", "avg_frame_rate": "61724/2469", "time_base": "1/12800", "start_pts": 0, "start_time": "0.000000", "duration_ts": 63206400, "duration": "4938.000000", "bit_rate": "767616", "bits_per_raw_sample": "8", "nb_frames": "123448", "disposition": {"default": 1, "dub": 0, "original": 0, "comment": 0, "lyrics": 0, "karaoke": 0, "forced": 0, "hearing_impaired": 0, "visual_impaired": 0, "clean_effects": 0, "attached_pic": 0, "timed_thumbnails": 0}, "tags": {"language": "und", "handler_name": "VideoHandler"}}, "audio": {"index": 1, "codec_name": "aac", "codec_long_name": "AAC (Advanced Audio Coding)", "profile": "LC", "codec_type": "audio", "codec_time_base": "1/44100", "codec_tag_string": "mp4a", "codec_tag": "0x6134706d", "sample_fmt": "fltp", "sample_rate": "44100", "channels": 2, "channel_layout": "stereo", "bits_per_sample": 0, "r_frame_rate": "0/0", "avg_frame_rate": "0/0", "time_base": "1/44100", "start_pts": 0, "start_time": "0.000000", "duration_ts": 217764830, "duration": "4937.978005", "bit_rate": "97225", "max_bit_rate": "97225", "nb_frames": "212662", "disposition": {"default": 1, "dub": 0, "original": 0, "comment": 0, "lyrics": 0, "karaoke": 0, "forced": 0, "hearing_impaired": 0, "visual_impaired": 0, "clean_effects": 0, "attached_pic": 0, "timed_thumbnails": 0}, "tags": {"language": "und", "handler_name": "SoundHandler"}}, "bitrate": 872}, "custom_sid": null, "added": "1746186775", "season": 2, "direct_source": ""}, {"id": "258388", "episode_num": 2, "title": "Mr  Robot.S02.E03", "container_extension": "mp4", "info": {"duration_secs": 3781, "duration": "01:03:01", "video": {"index": 0, "codec_name": "h264", "codec_long_name": "H.264 / AVC / MPEG-4 AVC / MPEG-4 part 10", "profile": "High", "codec_type": "video", "codec_time_base": "47273/2363600", "codec_tag_string": "avc1", "codec_tag": "0x31637661", "width": 848, "height": 480, "coded_width": 848, "coded_height": 480, "has_b_frames": 2, "sample_aspect_ratio": "900:901", "display_aspect_ratio": "30:17", "pix_fmt": "yuv420p", "level": 30, "chroma_location": "left", "refs": 1, "is_avc": "true", "nal_length_size": "4", "r_frame_rate": "25/1", "avg_frame_rate": "1181800/47273", "time_base": "1/12800", "start_pts": 0, "start_time": "0.000000", "duration_ts": 48407552, "duration": "3781.840000", "bit_rate": "768999", "bits_per_raw_sample": "8", "nb_frames": "94544", "disposition": {"default": 1, "dub": 0, "original": 0, "comment": 0, "lyrics": 0, "karaoke": 0, "forced": 0, "hearing_impaired": 0, "visual_impaired": 0, "clean_effects": 0, "attached_pic": 0, "timed_thumbnails": 0}, "tags": {"language": "und", "handler_name": "VideoHandler"}}, "audio": {"index": 1, "codec_name": "aac", "codec_long_name": "AAC (Advanced Audio Coding)", "profile": "LC", "codec_type": "audio", "codec_time_base": "1/44100", "codec_tag_string": "mp4a", "codec_tag": "0x6134706d", "sample_fmt": "fltp", "sample_rate": "44100", "channels": 2, "channel_layout": "stereo", "bits_per_sample": 0, "r_frame_rate": "0/0", "avg_frame_rate": "0/0", "time_base": "1/44100", "start_pts": 0, "start_time": "0.000000", "duration_ts": 166778879, "duration": "3781.833991", "bit_rate": "97048", "max_bit_rate": "97048", "nb_frames": "162871", "disposition": {"default": 1, "dub": 0, "original": 0, "comment": 0, "lyrics": 0, "karaoke": 0, "forced": 0, "hearing_impaired": 0, "visual_impaired": 0, "clean_effects": 0, "attached_pic": 0, "timed_thumbnails": 0}, "tags": {"language": "und", "handler_name": "SoundHandler"}}, "bitrate": 873}, "custom_sid": null, "added": "1647298262", "season": 2, "direct_source": ""}, {"id": "258389", "episode_num": 3, "title": "Mr  Robot.S02.E04", "container_extension": "mp4", "info": {"duration_secs": 3921, "duration": "01:05:21", "video": {"index": 0, "codec_name": "h264", "codec_long_name": "H.264 / AVC / MPEG-4 AVC / MPEG-4 part 10", "profile": "High", "codec_type": "video", "codec_time_base": "98049/4902350", "codec_tag_string": "avc1", "codec_tag": "0x31637661", "width": 848, "height": 480, "coded_width": 848, "coded_height": 480, "has_b_frames": 2, "sample_aspect_ratio": "900:901", "display_aspect_ratio": "30:17", "pix_fmt": "yuv420p", "level": 30, "chroma_location": "left", "refs": 1, "is_avc": "true", "nal_length_size": "4", "r_frame_rate": "25/1", "avg_frame_rate": "2451175/98049", "time_base": "1/12800", "start_pts": 0, "start_time": "0.000000", "duration_ts": 50201088, "duration": "3921.960000", "bit_rate": "767820", "bits_per_raw_sample": "8", "nb_frames": "98047", "disposition": {"default": 1, "dub": 0, "original": 0, "comment": 0, "lyrics": 0, "karaoke": 0, "forced": 0, "hearing_impaired": 0, "visual_impaired": 0, "clean_effects": 0, "attached_pic": 0, "timed_thumbnails": 0}, "tags": {"language": "und", "handler_name": "VideoHandler"}}, "audio": {"index": 1, "codec_name": "aac", "codec_long_name": "AAC (Advanced Audio Coding)", "profile": "LC", "codec_type": "audio", "codec_time_base": "1/44100", "codec_tag_string": "mp4a", "codec_tag": "0x6134706d", "sample_fmt": "fltp", "sample_rate": "44100", "channels": 2, "channel_layout": "stereo", "bits_per_sample": 0, "r_frame_rate": "0/0", "avg_frame_rate": "0/0", "time_base": "1/44100", "start_pts": 0, "start_time": "0.000000", "duration_ts": 172957686, "duration": "3921.942993", "bit_rate": "97212", "max_bit_rate": "97212", "nb_frames": "168905", "disposition": {"default": 1, "dub": 0, "original": 0, "comment": 0, "lyrics": 0, "karaoke": 0, "forced": 0, "hearing_impaired": 0, "visual_impaired": 0, "clean_effects": 0, "attached_pic": 0, "timed_thumbnails": 0}, "tags": {"language": "und", "handler_name": "SoundHandler"}}, "bitrate": 872}, "custom_sid": null, "added": "1647298262", "season": 2, "direct_source": ""}, {"id": "258390", "episode_num": 4, "title": "Mr  Robot.S02.E05", "container_extension": "mp4", "info": {"duration_secs": 3084, "duration": "00:51:24", "video": {"index": 0, "codec_name": "h264", "codec_long_name": "H.264 / AVC / MPEG-4 AVC / MPEG-4 part 10", "profile": "High", "codec_type": "video", "codec_time_base": "7711/385540", "codec_tag_string": "avc1", "codec_tag": "0x31637661", "width": 848, "height": 480, "coded_width": 848, "coded_height": 480, "has_b_frames": 2, "pix_fmt": "yuv420p", "level": 30, "chroma_location": "left", "refs": 1, "is_avc": "true", "nal_length_size": "4", "r_frame_rate": "25/1", "avg_frame_rate": "192770/7711", "time_base": "1/12800", "start_pts": 0, "start_time": "0.000000", "duration_ts": 39480320, "duration": "3084.400000", "bit_rate": "777921", "bits_per_raw_sample": "8", "nb_frames": "77108", "disposition": {"default": 1, "dub": 0, "original": 0, "comment": 0, "lyrics": 0, "karaoke": 0, "forced": 0, "hearing_impaired": 0, "visual_impaired": 0, "clean_effects": 0, "attached_pic": 0, "timed_thumbnails": 0}, "tags": {"language": "und", "handler_name": "VideoHandler"}}, "audio": {"index": 1, "codec_name": "aac", "codec_long_name": "AAC (Advanced Audio Coding)", "profile": "LC", "codec_type": "audio", "codec_time_base": "1/44100", "codec_tag_string": "mp4a", "codec_tag": "0x6134706d", "sample_fmt": "fltp", "sample_rate": "44100", "channels": 2, "channel_layout": "stereo", "bits_per_sample": 0, "r_frame_rate": "0/0", "avg_frame_rate": "0/0", "time_base": "1/44100", "start_pts": 0, "start_time": "0.000000", "duration_ts": 136020982, "duration": "3084.376009", "bit_rate": "97858", "max_bit_rate": "97858", "nb_frames": "132834", "disposition": {"default": 1, "dub": 0, "original": 0, "comment": 0, "lyrics": 0, "karaoke": 0, "forced": 0, "hearing_impaired": 0, "visual_impaired": 0, "clean_effects": 0, "attached_pic": 0, "timed_thumbnails": 0}, "tags": {"language": "und", "handler_name": "SoundHandler"}}, "bitrate": 883}, "custom_sid": null, "added": "1647298262", "season": 2, "direct_source": ""}, {"id": "258391", "episode_num": 5, "title": "Mr  Robot.S02.E06", "container_extension": "mp4", "info": {"duration_secs": 2995, "duration": "00:49:55", "video": {"index": 0, "codec_name": "h264", "codec_long_name": "H.264 / AVC / MPEG-4 AVC / MPEG-4 part 10", "profile": "High", "codec_type": "video", "codec_time_base": "7489/374440", "codec_tag_string": "avc1", "codec_tag": "0x31637661", "width": 848, "height": 480, "coded_width": 848, "coded_height": 480, "has_b_frames": 2, "pix_fmt": "yuv420p", "level": 30, "chroma_location": "left", "refs": 1, "is_avc": "true", "nal_length_size": "4", "r_frame_rate": "25/1", "avg_frame_rate": "187220/7489", "time_base": "1/12800", "start_pts": 0, "start_time": "0.000000", "duration_ts": 38343680, "duration": "2995.600000", "bit_rate": "769504", "bits_per_raw_sample": "8", "nb_frames": "74888", "disposition": {"default": 1, "dub": 0, "original": 0, "comment": 0, "lyrics": 0, "karaoke": 0, "forced": 0, "hearing_impaired": 0, "visual_impaired": 0, "clean_effects": 0, "attached_pic": 0, "timed_thumbnails": 0}, "tags": {"language": "und", "handler_name": "VideoHandler"}}, "audio": {"index": 1, "codec_name": "aac", "codec_long_name": "AAC (Advanced Audio Coding)", "profile": "LC", "codec_type": "audio", "codec_time_base": "1/44100", "codec_tag_string": "mp4a", "codec_tag": "0x6134706d", "sample_fmt": "fltp", "sample_rate": "44100", "channels": 2, "channel_layout": "stereo", "bits_per_sample": 0, "r_frame_rate": "0/0", "avg_frame_rate": "0/0", "time_base": "1/44100", "start_pts": 0, "start_time": "0.000000", "duration_ts": 132105210, "duration": "2995.582993", "bit_rate": "96445", "max_bit_rate": "96445", "nb_frames": "129010", "disposition": {"default": 1, "dub": 0, "original": 0, "comment": 0, "lyrics": 0, "karaoke": 0, "forced": 0, "hearing_impaired": 0, "visual_impaired": 0, "clean_effects": 0, "attached_pic": 0, "timed_thumbnails": 0}, "tags": {"language": "und", "handler_name": "SoundHandler"}}, "bitrate": 873}, "custom_sid": null, "added": "1647298262", "season": 2, "direct_source": ""}, {"id": "258392", "episode_num": 6, "title": "Mr  Robot.S02.E07", "container_extension": "mp4", "info": {"duration_secs": 2916, "duration": "00:48:36", "video": {"index": 0, "codec_name": "h264", "codec_long_name": "H.264 / AVC / MPEG-4 AVC / MPEG-4 part 10", "profile": "High", "codec_type": "video", "codec_time_base": "72909/3645350", "codec_tag_string": "avc1", "codec_tag": "0x31637661", "width": 848, "height": 480, "coded_width": 848, "coded_height": 480, "has_b_frames": 2, "sample_aspect_ratio": "900:901", "display_aspect_ratio": "30:17", "pix_fmt": "yuv420p", "level": 30, "chroma_location": "left", "refs": 1, "is_avc": "true", "nal_length_size": "4", "r_frame_rate": "25/1", "avg_frame_rate": "1822675/72909", "time_base": "1/12800", "start_pts": 0, "start_time": "0.000000", "duration_ts": 37329408, "duration": "2916.360000", "bit_rate": "774359", "bits_per_raw_sample": "8", "nb_frames": "72907", "disposition": {"default": 1, "dub": 0, "original": 0, "comment": 0, "lyrics": 0, "karaoke": 0, "forced": 0, "hearing_impaired": 0, "visual_impaired": 0, "clean_effects": 0, "attached_pic": 0, "timed_thumbnails": 0}, "tags": {"language": "und", "handler_name": "VideoHandler"}}, "audio": {"index": 1, "codec_name": "aac", "codec_long_name": "AAC (Advanced Audio Coding)", "profile": "LC", "codec_type": "audio", "codec_time_base": "1/44100", "codec_tag_string": "mp4a", "codec_tag": "0x6134706d", "sample_fmt": "fltp", "sample_rate": "44100", "channels": 2, "channel_layout": "stereo", "bits_per_sample": 0, "r_frame_rate": "0/0", "avg_frame_rate": "0/0", "time_base": "1/44100", "start_pts": 0, "start_time": "0.000000", "duration_ts": 128611300, "duration": "2916.356009", "bit_rate": "96255", "max_bit_rate": "96255", "nb_frames": "125598", "disposition": {"default": 1, "dub": 0, "original": 0, "comment": 0, "lyrics": 0, "karaoke": 0, "forced": 0, "hearing_impaired": 0, "visual_impaired": 0, "clean_effects": 0, "attached_pic": 0, "timed_thumbnails": 0}, "tags": {"language": "und", "handler_name": "SoundHandler"}}, "bitrate": 878}, "custom_sid": null, "added": "1647298262", "season": 2, "direct_source": ""}, {"id": "258393", "episode_num": 7, "title": "Mr  Robot.S02.E08", "container_extension": "mp4", "info": {"duration_secs": 2782, "duration": "00:46:22", "video": {"index": 0, "codec_name": "h264", "codec_long_name": "H.264 / AVC / MPEG-4 AVC / MPEG-4 part 10", "profile": "High", "codec_type": "video", "codec_time_base": "34779/1738900", "codec_tag_string": "avc1", "codec_tag": "0x31637661", "width": 848, "height": 480, "coded_width": 848, "coded_height": 480, "has_b_frames": 2, "pix_fmt": "yuv420p", "level": 30, "chroma_location": "left", "refs": 1, "is_avc": "true", "nal_length_size": "4", "r_frame_rate": "25/1", "avg_frame_rate": "869450/34779", "time_base": "1/12800", "start_pts": 0, "start_time": "0.000000", "duration_ts": 35613696, "duration": "2782.320000", "bit_rate": "765044", "bits_per_raw_sample": "8", "nb_frames": "69556", "disposition": {"default": 1, "dub": 0, "original": 0, "comment": 0, "lyrics": 0, "karaoke": 0, "forced": 0, "hearing_impaired": 0, "visual_impaired": 0, "clean_effects": 0, "attached_pic": 0, "timed_thumbnails": 0}, "tags": {"language": "und", "handler_name": "VideoHandler"}}, "audio": {"index": 1, "codec_name": "aac", "codec_long_name": "AAC (Advanced Audio Coding)", "profile": "LC", "codec_type": "audio", "codec_time_base": "1/44100", "codec_tag_string": "mp4a", "codec_tag": "0x6134706d", "sample_fmt": "fltp", "sample_rate": "44100", "channels": 2, "channel_layout": "stereo", "bits_per_sample": 0, "r_frame_rate": "0/0", "avg_frame_rate": "0/0", "time_base": "1/44100", "start_pts": 0, "start_time": "0.000000", "duration_ts": 122700797, "duration": "2782.330998", "bit_rate": "96221", "max_bit_rate": "96221", "nb_frames": "119826", "disposition": {"default": 1, "dub": 0, "original": 0, "comment": 0, "lyrics": 0, "karaoke": 0, "forced": 0, "hearing_impaired": 0, "visual_impaired": 0, "clean_effects": 0, "attached_pic": 0, "timed_thumbnails": 0}, "tags": {"language": "und", "handler_name": "SoundHandler"}}, "bitrate": 869}, "custom_sid": null, "added": "1647298262", "season": 2, "direct_source": ""}, {"id": "258394", "episode_num": 8, "title": "Mr  Robot.S02.E09", "container_extension": "mp4", "info": {"duration_secs": 2946, "duration": "00:49:06", "video": {"index": 0, "codec_name": "h264", "codec_long_name": "H.264 / AVC / MPEG-4 AVC / MPEG-4 part 10", "profile": "High", "codec_type": "video", "codec_time_base": "36833/1841600", "codec_tag_string": "avc1", "codec_tag": "0x31637661", "width": 848, "height": 480, "coded_width": 848, "coded_height": 480, "has_b_frames": 2, "pix_fmt": "yuv420p", "level": 30, "chroma_location": "left", "refs": 1, "is_avc": "true", "nal_length_size": "4", "r_frame_rate": "25/1", "avg_frame_rate": "920800/36833", "time_base": "1/12800", "start_pts": 0, "start_time": "0.000000", "duration_ts": 37716992, "duration": "2946.640000", "bit_rate": "768044", "bits_per_raw_sample": "8", "nb_frames": "73664", "disposition": {"default": 1, "dub": 0, "original": 0, "comment": 0, "lyrics": 0, "karaoke": 0, "forced": 0, "hearing_impaired": 0, "visual_impaired": 0, "clean_effects": 0, "attached_pic": 0, "timed_thumbnails": 0}, "tags": {"language": "und", "handler_name": "VideoHandler"}}, "audio": {"index": 1, "codec_name": "aac", "codec_long_name": "AAC (Advanced Audio Coding)", "profile": "LC", "codec_type": "audio", "codec_time_base": "1/44100", "codec_tag_string": "mp4a", "codec_tag": "0x6134706d", "sample_fmt": "fltp", "sample_rate": "44100", "channels": 2, "channel_layout": "stereo", "bits_per_sample": 0, "r_frame_rate": "0/0", "avg_frame_rate": "0/0", "time_base": "1/44100", "start_pts": 0, "start_time": "0.000000", "duration_ts": 129946604, "duration": "2946.635011", "bit_rate": "96114", "max_bit_rate": "96114", "nb_frames": "126902", "disposition": {"default": 1, "dub": 0, "original": 0, "comment": 0, "lyrics": 0, "karaoke": 0, "forced": 0, "hearing_impaired": 0, "visual_impaired": 0, "clean_effects": 0, "attached_pic": 0, "timed_thumbnails": 0}, "tags": {"language": "und", "handler_name": "SoundHandler"}}, "bitrate": 872}, "custom_sid": null, "added": "1647298262", "season": 2, "direct_source": ""}, {"id": "258395", "episode_num": 9, "title": "Mr  Robot.S02.E10", "container_extension": "mp4", "info": {"duration_secs": 2568, "duration": "00:42:48", "video": {"index": 0, "codec_name": "h264", "codec_long_name": "H.264 / AVC / MPEG-4 AVC / MPEG-4 part 10", "profile": "High", "codec_type": "video", "codec_time_base": "64211/3210450", "codec_tag_string": "avc1", "codec_tag": "0x31637661", "width": 848, "height": 480, "coded_width": 848, "coded_height": 480, "has_b_frames": 2, "sample_aspect_ratio": "900:901", "display_aspect_ratio": "30:17", "pix_fmt": "yuv420p", "level": 30, "chroma_location": "left", "refs": 1, "is_avc": "true", "nal_length_size": "4", "r_frame_rate": "25/1", "avg_frame_rate": "1605225/64211", "time_base": "1/12800", "start_pts": 0, "start_time": "0.000000", "duration_ts": 32876032, "duration": "2568.440000", "bit_rate": "782144", "bits_per_raw_sample": "8", "nb_frames": "64209", "disposition": {"default": 1, "dub": 0, "original": 0, "comment": 0, "lyrics": 0, "karaoke": 0, "forced": 0, "hearing_impaired": 0, "visual_impaired": 0, "clean_effects": 0, "attached_pic": 0, "timed_thumbnails": 0}, "tags": {"language": "und", "handler_name": "VideoHandler"}}, "audio": {"index": 1, "codec_name": "aac", "codec_long_name": "AAC (Advanced Audio Coding)", "profile": "LC", "codec_type": "audio", "codec_time_base": "1/44100", "codec_tag_string": "mp4a", "codec_tag": "0x6134706d", "sample_fmt": "fltp", "sample_rate": "44100", "channels": 2, "channel_layout": "stereo", "bits_per_sample": 0, "r_frame_rate": "0/0", "avg_frame_rate": "0/0", "time_base": "1/44100", "start_pts": 0, "start_time": "0.000000", "duration_ts": 113268733, "duration": "2568.451995", "bit_rate": "97180", "max_bit_rate": "97180", "nb_frames": "110615", "disposition": {"default": 1, "dub": 0, "original": 0, "comment": 0, "lyrics": 0, "karaoke": 0, "forced": 0, "hearing_impaired": 0, "visual_impaired": 0, "clean_effects": 0, "attached_pic": 0, "timed_thumbnails": 0}, "tags": {"language": "und", "handler_name": "SoundHandler"}}, "bitrate": 887}, "custom_sid": null, "added": "1647298262", "season": 2, "direct_source": ""}, {"id": "258396", "episode_num": 10, "title": "Mr  Robot.S02.E11", "container_extension": "mp4", "info": {"duration_secs": 2828, "duration": "00:47:08", "video": {"index": 0, "codec_name": "h264", "codec_long_name": "H.264 / AVC / MPEG-4 AVC / MPEG-4 part 10", "profile": "High", "codec_type": "video", "codec_time_base": "35351/1767500", "codec_tag_string": "avc1", "codec_tag": "0x31637661", "width": 848, "height": 480, "coded_width": 848, "coded_height": 480, "has_b_frames": 2, "pix_fmt": "yuv420p", "level": 30, "chroma_location": "left", "refs": 1, "is_avc": "true", "nal_length_size": "4", "r_frame_rate": "25/1", "avg_frame_rate": "883750/35351", "time_base": "1/12800", "start_pts": 0, "start_time": "0.000000", "duration_ts": 36199424, "duration": "2828.080000", "bit_rate": "765202", "bits_per_raw_sample": "8", "nb_frames": "70700", "disposition": {"default": 1, "dub": 0, "original": 0, "comment": 0, "lyrics": 0, "karaoke": 0, "forced": 0, "hearing_impaired": 0, "visual_impaired": 0, "clean_effects": 0, "attached_pic": 0, "timed_thumbnails": 0}, "tags": {"language": "und", "handler_name": "VideoHandler"}}, "audio": {"index": 1, "codec_name": "aac", "codec_long_name": "AAC (Advanced Audio Coding)", "profile": "LC", "codec_type": "audio", "codec_time_base": "1/44100", "codec_tag_string": "mp4a", "codec_tag": "0x6134706d", "sample_fmt": "fltp", "sample_rate": "44100", "channels": 2, "channel_layout": "stereo", "bits_per_sample": 0, "r_frame_rate": "0/0", "avg_frame_rate": "0/0", "time_base": "1/44100", "start_pts": 0, "start_time": "0.000000", "duration_ts": 124719078, "duration": "2828.097007", "bit_rate": "96394", "max_bit_rate": "96394", "nb_frames": "121797", "disposition": {"default": 1, "dub": 0, "original": 0, "comment": 0, "lyrics": 0, "karaoke": 0, "forced": 0, "hearing_impaired": 0, "visual_impaired": 0, "clean_effects": 0, "attached_pic": 0, "timed_thumbnails": 0}, "tags": {"language": "und", "handler_name": "SoundHandler"}}, "bitrate": 869}, "custom_sid": null, "added": "1647298262", "season": 2, "direct_source": ""}, {"id": "258397", "episode_num": 11, "title": "Mr  Robot.S02.E12", "container_extension": "mp4", "info": {"duration_secs": 2873, "duration": "00:47:53", "video": {"index": 0, "codec_name": "h264", "codec_long_name": "H.264 / AVC / MPEG-4 AVC / MPEG-4 part 10", "profile": "High", "codec_type": "video", "codec_time_base": "35917/1795800", "codec_tag_string": "avc1", "codec_tag": "0x31637661", "width": 848, "height": 480, "coded_width": 848, "coded_height": 480, "has_b_frames": 2, "pix_fmt": "yuv420p", "level": 30, "chroma_location": "left", "refs": 1, "is_avc": "true", "nal_length_size": "4", "r_frame_rate": "25/1", "avg_frame_rate": "897900/35917", "time_base": "1/12800", "start_pts": 0, "start_time": "0.000000", "duration_ts": 36779008, "duration": "2873.360000", "bit_rate": "780037", "bits_per_raw_sample": "8", "nb_frames": "71832", "disposition": {"default": 1, "dub": 0, "original": 0, "comment": 0, "lyrics": 0, "karaoke": 0, "forced": 0, "hearing_impaired": 0, "visual_impaired": 0, "clean_effects": 0, "attached_pic": 0, "timed_thumbnails": 0}, "tags": {"language": "und", "handler_name": "VideoHandler"}}, "audio": {"index": 1, "codec_name": "aac", "codec_long_name": "AAC (Advanced Audio Coding)", "profile": "LC", "codec_type": "audio", "codec_time_base": "1/44100", "codec_tag_string": "mp4a", "codec_tag": "0x6134706d", "sample_fmt": "fltp", "sample_rate": "44100", "channels": 2, "channel_layout": "stereo", "bits_per_sample": 0, "r_frame_rate": "0/0", "avg_frame_rate": "0/0", "time_base": "1/44100", "start_pts": 0, "start_time": "0.000000", "duration_ts": 126714867, "duration": "2873.352993", "bit_rate": "96887", "max_bit_rate": "96887", "nb_frames": "123746", "disposition": {"default": 1, "dub": 0, "original": 0, "comment": 0, "lyrics": 0, "karaoke": 0, "forced": 0, "hearing_impaired": 0, "visual_impaired": 0, "clean_effects": 0, "attached_pic": 0, "timed_thumbnails": 0}, "tags": {"language": "und", "handler_name": "SoundHandler"}}, "bitrate": 884}, "custom_sid": null, "added": "1647298262", "season": 2, "direct_source": ""}], "3": [{"id": "258398", "episode_num": 1, "title": "Mr  Robot.S03.E01", "container_extension": "mp4", "info": {"duration_secs": 3196, "duration": "00:53:16", "video": {"index": 0, "codec_name": "h264", "codec_long_name": "H.264 / AVC / MPEG-4 AVC / MPEG-4 part 10", "profile": "High", "codec_type": "video", "codec_time_base": "79911/3995450", "codec_tag_string": "avc1", "codec_tag": "0x31637661", "width": 848, "height": 480, "coded_width": 848, "coded_height": 480, "has_b_frames": 2, "pix_fmt": "yuv420p", "level": 30, "chroma_location": "left", "refs": 1, "is_avc": "true", "nal_length_size": "4", "r_frame_rate": "25/1", "avg_frame_rate": "1997725/79911", "time_base": "1/12800", "start_pts": 0, "start_time": "0.000000", "duration_ts": 40914432, "duration": "3196.440000", "bit_rate": "770616", "bits_per_raw_sample": "8", "nb_frames": "79909", "disposition": {"default": 1, "dub": 0, "original": 0, "comment": 0, "lyrics": 0, "karaoke": 0, "forced": 0, "hearing_impaired": 0, "visual_impaired": 0, "clean_effects": 0, "attached_pic": 0, "timed_thumbnails": 0}, "tags": {"language": "und", "handler_name": "VideoHandler"}}, "audio": {"index": 1, "codec_name": "aac", "codec_long_name": "AAC (Advanced Audio Coding)", "profile": "LC", "codec_type": "audio", "codec_time_base": "1/44100", "codec_tag_string": "mp4a", "codec_tag": "0x6134706d", "sample_fmt": "fltp", "sample_rate": "44100", "channels": 2, "channel_layout": "stereo", "bits_per_sample": 0, "r_frame_rate": "0/0", "avg_frame_rate": "0/0", "time_base": "1/44100", "start_pts": 0, "start_time": "0.000000", "duration_ts": 140963842, "duration": "3196.459002", "bit_rate": "97137", "max_bit_rate": "97137", "nb_frames": "137661", "disposition": {"default": 1, "dub": 0, "original": 0, "comment": 0, "lyrics": 0, "karaoke": 0, "forced": 0, "hearing_impaired": 0, "visual_impaired": 0, "clean_effects": 0, "attached_pic": 0, "timed_thumbnails": 0}, "tags": {"language": "und", "handler_name": "SoundHandler"}}, "bitrate": 875}, "custom_sid": null, "added": "1647298262", "season": 3, "direct_source": ""}, {"id": "258399", "episode_num": 2, "title": "Mr  Robot.S03.E02", "container_extension": "mp4", "info": {"duration_secs": 2825, "duration": "00:47:05", "video": {"index": 0, "codec_name": "h264", "codec_long_name": "H.264 / AVC / MPEG-4 AVC / MPEG-4 part 10", "profile": "High", "codec_type": "video", "codec_time_base": "70627/3531250", "codec_tag_string": "avc1", "codec_tag": "0x31637661", "width": 848, "height": 480, "coded_width": 848, "coded_height": 480, "has_b_frames": 2, "pix_fmt": "yuv420p", "level": 30, "chroma_location": "left", "refs": 1, "is_avc": "true", "nal_length_size": "4", "r_frame_rate": "25/1", "avg_frame_rate": "1765625/70627", "time_base": "1/12800", "start_pts": 0, "start_time": "0.000000", "duration_ts": 36161024, "duration": "2825.080000", "bit_rate": "767506", "bits_per_raw_sample": "8", "nb_frames": "70625", "disposition": {"default": 1, "dub": 0, "original": 0, "comment": 0, "lyrics": 0, "karaoke": 0, "forced": 0, "hearing_impaired": 0, "visual_impaired": 0, "clean_effects": 0, "attached_pic": 0, "timed_thumbnails": 0}, "tags": {"language": "und", "handler_name": "VideoHandler"}}, "audio": {"index": 1, "codec_name": "aac", "codec_long_name": "AAC (Advanced Audio Coding)", "profile": "LC", "codec_type": "audio", "codec_time_base": "1/44100", "codec_tag_string": "mp4a", "codec_tag": "0x6134706d", "sample_fmt": "fltp", "sample_rate": "44100", "channels": 2, "channel_layout": "stereo", "bits_per_sample": 0, "r_frame_rate": "0/0", "avg_frame_rate": "0/0", "time_base": "1/44100", "start_pts": 0, "start_time": "0.000000", "duration_ts": 124585984, "duration": "2825.079002", "bit_rate": "97343", "max_bit_rate": "97343", "nb_frames": "121667", "disposition": {"default": 1, "dub": 0, "original": 0, "comment": 0, "lyrics": 0, "karaoke": 0, "forced": 0, "hearing_impaired": 0, "visual_impaired": 0, "clean_effects": 0, "attached_pic": 0, "timed_thumbnails": 0}, "tags": {"language": "und", "handler_name": "SoundHandler"}}, "bitrate": 872}, "custom_sid": null, "added": "1647298262", "season": 3, "direct_source": ""}, {"id": "258400", "episode_num": 3, "title": "Mr  Robot.S03.E03", "container_extension": "mp4", "info": {"duration_secs": 2990, "duration": "00:49:50", "video": {"index": 0, "codec_name": "h264", "codec_long_name": "H.264 / AVC / MPEG-4 AVC / MPEG-4 part 10", "profile": "High", "codec_type": "video", "codec_time_base": "74751/3737450", "codec_tag_string": "avc1", "codec_tag": "0x31637661", "width": 848, "height": 480, "coded_width": 848, "coded_height": 480, "has_b_frames": 2, "sample_aspect_ratio": "900:901", "display_aspect_ratio": "30:17", "pix_fmt": "yuv420p", "level": 30, "chroma_location": "left", "refs": 1, "is_avc": "true", "nal_length_size": "4", "r_frame_rate": "25/1", "avg_frame_rate": "1868725/74751", "time_base": "1/12800", "start_pts": 0, "start_time": "0.000000", "duration_ts": 38272512, "duration": "2990.040000", "bit_rate": "766525", "bits_per_raw_sample": "8", "nb_frames": "74749", "disposition": {"default": 1, "dub": 0, "original": 0, "comment": 0, "lyrics": 0, "karaoke": 0, "forced": 0, "hearing_impaired": 0, "visual_impaired": 0, "clean_effects": 0, "attached_pic": 0, "timed_thumbnails": 0}, "tags": {"language": "und", "handler_name": "VideoHandler"}}, "audio": {"index": 1, "codec_name": "aac", "codec_long_name": "AAC (Advanced Audio Coding)", "profile": "LC", "codec_type": "audio", "codec_time_base": "1/44100", "codec_tag_string": "mp4a", "codec_tag": "0x6134706d", "sample_fmt": "fltp", "sample_rate": "44100", "channels": 2, "channel_layout": "stereo", "bits_per_sample": 0, "r_frame_rate": "0/0", "avg_frame_rate": "0/0", "time_base": "1/44100", "start_pts": 0, "start_time": "0.000000", "duration_ts": 131861470, "duration": "2990.056009", "bit_rate": "97246", "max_bit_rate": "97246", "nb_frames": "128772", "disposition": {"default": 1, "dub": 0, "original": 0, "comment": 0, "lyrics": 0, "karaoke": 0, "forced": 0, "hearing_impaired": 0, "visual_impaired": 0, "clean_effects": 0, "attached_pic": 0, "timed_thumbnails": 0}, "tags": {"language": "und", "handler_name": "SoundHandler"}}, "bitrate": 871}, "custom_sid": null, "added": "1647298262", "season": 3, "direct_source": ""}, {"id": "258401", "episode_num": 4, "title": "Mr  Robot.S03.E04", "container_extension": "mp4", "info": {"duration_secs": 2786, "duration": "00:46:26", "video": {"index": 0, "codec_name": "h264", "codec_long_name": "H.264 / AVC / MPEG-4 AVC / MPEG-4 part 10", "profile": "High", "codec_type": "video", "codec_time_base": "13931/696530", "codec_tag_string": "avc1", "codec_tag": "0x31637661", "width": 848, "height": 480, "coded_width": 848, "coded_height": 480, "has_b_frames": 2, "sample_aspect_ratio": "900:901", "display_aspect_ratio": "30:17", "pix_fmt": "yuv420p", "level": 30, "chroma_location": "left", "refs": 1, "is_avc": "true", "nal_length_size": "4", "r_frame_rate": "25/1", "avg_frame_rate": "348265/13931", "time_base": "1/12800", "start_pts": 0, "start_time": "0.000000", "duration_ts": 35663360, "duration": "2786.200000", "bit_rate": "766951", "bits_per_raw_sample": "8", "nb_frames": "69653", "disposition": {"default": 1, "dub": 0, "original": 0, "comment": 0, "lyrics": 0, "karaoke": 0, "forced": 0, "hearing_impaired": 0, "visual_impaired": 0, "clean_effects": 0, "attached_pic": 0, "timed_thumbnails": 0}, "tags": {"language": "und", "handler_name": "VideoHandler"}}, "audio": {"index": 1, "codec_name": "aac", "codec_long_name": "AAC (Advanced Audio Coding)", "profile": "LC", "codec_type": "audio", "codec_time_base": "1/44100", "codec_tag_string": "mp4a", "codec_tag": "0x6134706d", "sample_fmt": "fltp", "sample_rate": "44100", "channels": 2, "channel_layout": "stereo", "bits_per_sample": 0, "r_frame_rate": "0/0", "avg_frame_rate": "0/0", "time_base": "1/44100", "start_pts": 0, "start_time": "0.000000", "duration_ts": 122871773, "duration": "2786.208005", "bit_rate": "97527", "max_bit_rate": "97527", "nb_frames": "119993", "disposition": {"default": 1, "dub": 0, "original": 0, "comment": 0, "lyrics": 0, "karaoke": 0, "forced": 0, "hearing_impaired": 0, "visual_impaired": 0, "clean_effects": 0, "attached_pic": 0, "timed_thumbnails": 0}, "tags": {"language": "und", "handler_name": "SoundHandler"}}, "bitrate": 872}, "custom_sid": null, "added": "1647298262", "season": 3, "direct_source": ""}, {"id": "258402", "episode_num": 5, "title": "Mr  Robot.S03.E05", "container_extension": "mp4", "info": {"duration_secs": 2696, "duration": "00:44:56", "video": {"index": 0, "codec_name": "h264", "codec_long_name": "H.264 / AVC / MPEG-4 AVC / MPEG-4 part 10", "profile": "High", "codec_type": "video", "codec_time_base": "16856/842775", "codec_tag_string": "avc1", "codec_tag": "0x31637661", "width": 848, "height": 480, "coded_width": 848, "coded_height": 480, "has_b_frames": 2, "sample_aspect_ratio": "900:901", "display_aspect_ratio": "30:17", "pix_fmt": "yuv420p", "level": 30, "chroma_location": "left", "refs": 1, "is_avc": "true", "nal_length_size": "4", "r_frame_rate": "25/1", "avg_frame_rate": "842775/33712", "time_base": "1/12800", "start_pts": 0, "start_time": "0.000000", "duration_ts": 34521088, "duration": "2696.960000", "bit_rate": "767643", "bits_per_raw_sample": "8", "nb_frames": "67422", "disposition": {"default": 1, "dub": 0, "original": 0, "comment": 0, "lyrics": 0, "karaoke": 0, "forced": 0, "hearing_impaired": 0, "visual_impaired": 0, "clean_effects": 0, "attached_pic": 0, "timed_thumbnails": 0}, "tags": {"language": "und", "handler_name": "VideoHandler"}}, "audio": {"index": 1, "codec_name": "aac", "codec_long_name": "AAC (Advanced Audio Coding)", "profile": "LC", "codec_type": "audio", "codec_time_base": "1/44100", "codec_tag_string": "mp4a", "codec_tag": "0x6134706d", "sample_fmt": "fltp", "sample_rate": "44100", "channels": 2, "channel_layout": "stereo", "bits_per_sample": 0, "r_frame_rate": "0/0", "avg_frame_rate": "0/0", "time_base": "1/44100", "start_pts": 0, "start_time": "0.000000", "duration_ts": 118935539, "duration": "2696.950998", "bit_rate": "97534", "max_bit_rate": "97534", "nb_frames": "116149", "disposition": {"default": 1, "dub": 0, "original": 0, "comment": 0, "lyrics": 0, "karaoke": 0, "forced": 0, "hearing_impaired": 0, "visual_impaired": 0, "clean_effects": 0, "attached_pic": 0, "timed_thumbnails": 0}, "tags": {"language": "und", "handler_name": "SoundHandler"}}, "bitrate": 873}, "custom_sid": null, "added": "1647298262", "season": 3, "direct_source": ""}, {"id": "258403", "episode_num": 6, "title": "Mr  Robot.S03.E06", "container_extension": "mp4", "info": {"duration_secs": 2739, "duration": "00:45:39", "video": {"index": 0, "codec_name": "h264", "codec_long_name": "H.264 / AVC / MPEG-4 AVC / MPEG-4 part 10", "profile": "High", "codec_type": "video", "codec_time_base": "17122/856075", "codec_tag_string": "avc1", "codec_tag": "0x31637661", "width": 848, "height": 480, "coded_width": 848, "coded_height": 480, "has_b_frames": 2, "sample_aspect_ratio": "900:901", "display_aspect_ratio": "30:17", "pix_fmt": "yuv420p", "level": 30, "chroma_location": "left", "refs": 1, "is_avc": "true", "nal_length_size": "4", "r_frame_rate": "25/1", "avg_frame_rate": "856075/34244", "time_base": "1/12800", "start_pts": 0, "start_time": "0.000000", "duration_ts": 35065856, "duration": "2739.520000", "bit_rate": "775924", "bits_per_raw_sample": "8", "nb_frames": "68486", "disposition": {"default": 1, "dub": 0, "original": 0, "comment": 0, "lyrics": 0, "karaoke": 0, "forced": 0, "hearing_impaired": 0, "visual_impaired": 0, "clean_effects": 0, "attached_pic": 0, "timed_thumbnails": 0}, "tags": {"language": "und", "handler_name": "VideoHandler"}}, "audio": {"index": 1, "codec_name": "aac", "codec_long_name": "AAC (Advanced Audio Coding)", "profile": "LC", "codec_type": "audio", "codec_time_base": "1/44100", "codec_tag_string": "mp4a", "codec_tag": "0x6134706d", "sample_fmt": "fltp", "sample_rate": "44100", "channels": 2, "channel_layout": "stereo", "bits_per_sample": 0, "r_frame_rate": "0/0", "avg_frame_rate": "0/0", "time_base": "1/44100", "start_pts": 0, "start_time": "0.000000", "duration_ts": 120811509, "duration": "2739.490000", "bit_rate": "97385", "max_bit_rate": "97385", "nb_frames": "117981", "disposition": {"default": 1, "dub": 0, "original": 0, "comment": 0, "lyrics": 0, "karaoke": 0, "forced": 0, "hearing_impaired": 0, "visual_impaired": 0, "clean_effects": 0, "attached_pic": 0, "timed_thumbnails": 0}, "tags": {"language": "und", "handler_name": "SoundHandler"}}, "bitrate": 881}, "custom_sid": null, "added": "1647298262", "season": 3, "direct_source": ""}, {"id": "258404", "episode_num": 7, "title": "Mr  Robot.S03.E07", "container_extension": "mp4", "info": {"duration_secs": 2825, "duration": "00:47:05", "video": {"index": 0, "codec_name": "h264", "codec_long_name": "H.264 / AVC / MPEG-4 AVC / MPEG-4 part 10", "profile": "High", "codec_type": "video", "codec_time_base": "70647/3532250", "codec_tag_string": "avc1", "codec_tag": "0x31637661", "width": 848, "height": 480, "coded_width": 848, "coded_height": 480, "has_b_frames": 2, "sample_aspect_ratio": "900:901", "display_aspect_ratio": "30:17", "pix_fmt": "yuv420p", "level": 30, "chroma_location": "left", "refs": 1, "is_avc": "true", "nal_length_size": "4", "r_frame_rate": "25/1", "avg_frame_rate": "1766125/70647", "time_base": "1/12800", "start_pts": 0, "start_time": "0.000000", "duration_ts": 36171264, "duration": "2825.880000", "bit_rate": "769032", "bits_per_raw_sample": "8", "nb_frames": "70645", "disposition": {"default": 1, "dub": 0, "original": 0, "comment": 0, "lyrics": 0, "karaoke": 0, "forced": 0, "hearing_impaired": 0, "visual_impaired": 0, "clean_effects": 0, "attached_pic": 0, "timed_thumbnails": 0}, "tags": {"language": "und", "handler_name": "VideoHandler"}}, "audio": {"index": 1, "codec_name": "aac", "codec_long_name": "AAC (Advanced Audio Coding)", "profile": "LC", "codec_type": "audio", "codec_time_base": "1/44100", "codec_tag_string": "mp4a", "codec_tag": "0x6134706d", "sample_fmt": "fltp", "sample_rate": "44100", "channels": 2, "channel_layout": "stereo", "bits_per_sample": 0, "r_frame_rate": "0/0", "avg_frame_rate": "0/0", "time_base": "1/44100", "start_pts": 0, "start_time": "0.000000", "duration_ts": 124620779, "duration": "2825.868005", "bit_rate": "97641", "max_bit_rate": "97641", "nb_frames": "121701", "disposition": {"default": 1, "dub": 0, "original": 0, "comment": 0, "lyrics": 0, "karaoke": 0, "forced": 0, "hearing_impaired": 0, "visual_impaired": 0, "clean_effects": 0, "attached_pic": 0, "timed_thumbnails": 0}, "tags": {"language": "und", "handler_name": "SoundHandler"}}, "bitrate": 874}, "custom_sid": null, "added": "1647298262", "season": 3, "direct_source": ""}, {"id": "258405", "episode_num": 8, "title": "Mr  Robot.S03.E08", "container_extension": "mp4", "info": {"duration_secs": 2819, "duration": "00:46:59", "video": {"index": 0, "codec_name": "h264", "codec_long_name": "H.264 / AVC / MPEG-4 AVC / MPEG-4 part 10", "profile": "High", "codec_type": "video", "codec_time_base": "35239/1761900", "codec_tag_string": "avc1", "codec_tag": "0x31637661", "width": 848, "height": 480, "coded_width": 848, "coded_height": 480, "has_b_frames": 2, "pix_fmt": "yuv420p", "level": 30, "chroma_location": "left", "refs": 1, "is_avc": "true", "nal_length_size": "4", "r_frame_rate": "25/1", "avg_frame_rate": "880950/35239", "time_base": "1/12800", "start_pts": 0, "start_time": "0.000000", "duration_ts": 36084736, "duration": "2819.120000", "bit_rate": "766191", "bits_per_raw_sample": "8", "nb_frames": "70476", "disposition": {"default": 1, "dub": 0, "original": 0, "comment": 0, "lyrics": 0, "karaoke": 0, "forced": 0, "hearing_impaired": 0, "visual_impaired": 0, "clean_effects": 0, "attached_pic": 0, "timed_thumbnails": 0}, "tags": {"language": "und", "handler_name": "VideoHandler"}}, "audio": {"index": 1, "codec_name": "aac", "codec_long_name": "AAC (Advanced Audio Coding)", "profile": "LC", "codec_type": "audio", "codec_time_base": "1/44100", "codec_tag_string": "mp4a", "codec_tag": "0x6134706d", "sample_fmt": "fltp", "sample_rate": "44100", "channels": 2, "channel_layout": "stereo", "bits_per_sample": 0, "r_frame_rate": "0/0", "avg_frame_rate": "0/0", "time_base": "1/44100", "start_pts": 0, "start_time": "0.000000", "duration_ts": 124322795, "duration": "2819.110998", "bit_rate": "97341", "max_bit_rate": "97341", "nb_frames": "121410", "disposition": {"default": 1, "dub": 0, "original": 0, "comment": 0, "lyrics": 0, "karaoke": 0, "forced": 0, "hearing_impaired": 0, "visual_impaired": 0, "clean_effects": 0, "attached_pic": 0, "timed_thumbnails": 0}, "tags": {"language": "und", "handler_name": "SoundHandler"}}, "bitrate": 871}, "custom_sid": null, "added": "1647298262", "season": 3, "direct_source": ""}, {"id": "258406", "episode_num": 9, "title": "Mr  Robot.S03.E09", "container_extension": "mp4", "info": {"duration_secs": 2917, "duration": "00:48:37", "video": {"index": 0, "codec_name": "h264", "codec_long_name": "H.264 / AVC / MPEG-4 AVC / MPEG-4 part 10", "profile": "High", "codec_type": "video", "codec_time_base": "72939/3646850", "codec_tag_string": "avc1", "codec_tag": "0x31637661", "width": 848, "height": 480, "coded_width": 848, "coded_height": 480, "has_b_frames": 2, "sample_aspect_ratio": "900:901", "display_aspect_ratio": "30:17", "pix_fmt": "yuv420p", "level": 30, "chroma_location": "left", "refs": 1, "is_avc": "true", "nal_length_size": "4", "r_frame_rate": "25/1", "avg_frame_rate": "1823425/72939", "time_base": "1/12800", "start_pts": 0, "start_time": "0.000000", "duration_ts": 37344768, "duration": "2917.560000", "bit_rate": "766766", "bits_per_raw_sample": "8", "nb_frames": "72937", "disposition": {"default": 1, "dub": 0, "original": 0, "comment": 0, "lyrics": 0, "karaoke": 0, "forced": 0, "hearing_impaired": 0, "visual_impaired": 0, "clean_effects": 0, "attached_pic": 0, "timed_thumbnails": 0}, "tags": {"language": "und", "handler_name": "VideoHandler"}}, "audio": {"index": 1, "codec_name": "aac", "codec_long_name": "AAC (Advanced Audio Coding)", "profile": "LC", "codec_type": "audio", "codec_time_base": "1/44100", "codec_tag_string": "mp4a", "codec_tag": "0x6134706d", "sample_fmt": "fltp", "sample_rate": "44100", "channels": 2, "channel_layout": "stereo", "bits_per_sample": 0, "r_frame_rate": "0/0", "avg_frame_rate": "0/0", "time_base": "1/44100", "start_pts": 0, "start_time": "0.000000", "duration_ts": 128663558, "duration": "2917.540998", "bit_rate": "97483", "max_bit_rate": "97483", "nb_frames": "125649", "disposition": {"default": 1, "dub": 0, "original": 0, "comment": 0, "lyrics": 0, "karaoke": 0, "forced": 0, "hearing_impaired": 0, "visual_impaired": 0, "clean_effects": 0, "attached_pic": 0, "timed_thumbnails": 0}, "tags": {"language": "und", "handler_name": "SoundHandler"}}, "bitrate": 872}, "custom_sid": null, "added": "1647298262", "season": 3, "direct_source": ""}, {"id": "258407", "episode_num": 10, "title": "Mr  Robot.S03.E10", "container_extension": "mp4", "info": {"duration_secs": 3467, "duration": "00:57:47", "video": {"index": 0, "codec_name": "h264", "codec_long_name": "H.264 / AVC / MPEG-4 AVC / MPEG-4 part 10", "profile": "High", "codec_type": "video", "codec_time_base": "86683/4334050", "codec_tag_string": "avc1", "codec_tag": "0x31637661", "width": 848, "height": 480, "coded_width": 848, "coded_height": 480, "has_b_frames": 2, "sample_aspect_ratio": "900:901", "display_aspect_ratio": "30:17", "pix_fmt": "yuv420p", "level": 30, "chroma_location": "left", "refs": 1, "is_avc": "true", "nal_length_size": "4", "r_frame_rate": "25/1", "avg_frame_rate": "2167025/86683", "time_base": "1/12800", "start_pts": 0, "start_time": "0.000000", "duration_ts": 44381696, "duration": "3467.320000", "bit_rate": "782172", "bits_per_raw_sample": "8", "nb_frames": "86681", "disposition": {"default": 1, "dub": 0, "original": 0, "comment": 0, "lyrics": 0, "karaoke": 0, "forced": 0, "hearing_impaired": 0, "visual_impaired": 0, "clean_effects": 0, "attached_pic": 0, "timed_thumbnails": 0}, "tags": {"language": "und", "handler_name": "VideoHandler"}}, "audio": {"index": 1, "codec_name": "aac", "codec_long_name": "AAC (Advanced Audio Coding)", "profile": "LC", "codec_type": "audio", "codec_time_base": "1/44100", "codec_tag_string": "mp4a", "codec_tag": "0x6134706d", "sample_fmt": "fltp", "sample_rate": "44100", "channels": 2, "channel_layout": "stereo", "bits_per_sample": 0, "r_frame_rate": "0/0", "avg_frame_rate": "0/0", "time_base": "1/44100", "start_pts": 0, "start_time": "0.000000", "duration_ts": 152907754, "duration": "3467.296009", "bit_rate": "97309", "max_bit_rate": "97309", "nb_frames": "149325", "disposition": {"default": 1, "dub": 0, "original": 0, "comment": 0, "lyrics": 0, "karaoke": 0, "forced": 0, "hearing_impaired": 0, "visual_impaired": 0, "clean_effects": 0, "attached_pic": 0, "timed_thumbnails": 0}, "tags": {"language": "und", "handler_name": "SoundHandler"}}, "bitrate": 887}, "custom_sid": null, "added": "1647298262", "season": 3, "direct_source": ""}], "4": [{"id": "258408", "episode_num": 1, "title": "Mr  Robot.S04.E01", "container_extension": "mp4", "info": {"duration_secs": 3659, "duration": "01:00:59", "video": {"index": 0, "codec_name": "h264", "codec_long_name": "H.264 / AVC / MPEG-4 AVC / MPEG-4 part 10", "profile": "High", "codec_type": "video", "codec_time_base": "1/50", "codec_tag_string": "avc1", "codec_tag": "0x31637661", "width": 720, "height": 404, "coded_width": 720, "coded_height": 416, "has_b_frames": 2, "pix_fmt": "yuv420p", "level": 30, "chroma_location": "left", "refs": 1, "is_avc": "true", "nal_length_size": "4", "r_frame_rate": "25/1", "avg_frame_rate": "25/1", "time_base": "1/12800", "start_pts": 0, "start_time": "0.000000", "duration_ts": 46836224, "duration": "3659.080000", "bit_rate": "442788", "bits_per_raw_sample": "8", "nb_frames": "91477", "disposition": {"default": 1, "dub": 0, "original": 0, "comment": 0, "lyrics": 0, "karaoke": 0, "forced": 0, "hearing_impaired": 0, "visual_impaired": 0, "clean_effects": 0, "attached_pic": 0, "timed_thumbnails": 0}, "tags": {"language": "und", "handler_name": "VideoHandler"}}, "audio": {"index": 1, "codec_name": "aac", "codec_long_name": "AAC (Advanced Audio Coding)", "profile": "LC", "codec_type": "audio", "codec_time_base": "1/44100", "codec_tag_string": "mp4a", "codec_tag": "0x6134706d", "sample_fmt": "fltp", "sample_rate": "44100", "channels": 2, "channel_layout": "stereo", "bits_per_sample": 0, "r_frame_rate": "0/0", "avg_frame_rate": "0/0", "time_base": "1/44100", "start_pts": 0, "start_time": "0.000000", "duration_ts": 161369087, "duration": "3659.162971", "bit_rate": "97097", "max_bit_rate": "111824", "nb_frames": "157587", "disposition": {"default": 1, "dub": 0, "original": 0, "comment": 0, "lyrics": 0, "karaoke": 0, "forced": 0, "hearing_impaired": 0, "visual_impaired": 0, "clean_effects": 0, "attached_pic": 0, "timed_thumbnails": 0}, "tags": {"creation_time": "2021-01-07T09:51:41.000000Z", "language": "und", "handler_name": "GPAC ISO Audio Handler"}}, "bitrate": 544}, "custom_sid": null, "added": "1647298262", "season": 4, "direct_source": ""}, {"id": "258409", "episode_num": 2, "title": "Mr  Robot.S04.E02", "container_extension": "mp4", "info": {"duration_secs": 2851, "duration": "00:47:31", "video": {"index": 0, "codec_name": "h264", "codec_long_name": "H.264 / AVC / MPEG-4 AVC / MPEG-4 part 10", "profile": "High", "codec_type": "video", "codec_time_base": "17822/891075", "codec_tag_string": "avc1", "codec_tag": "0x31637661", "width": 852, "height": 480, "coded_width": 864, "coded_height": 480, "has_b_frames": 2, "pix_fmt": "yuv420p", "level": 30, "chroma_location": "left", "refs": 1, "is_avc": "true", "nal_length_size": "4", "r_frame_rate": "25/1", "avg_frame_rate": "891075/35644", "time_base": "1/12800", "start_pts": 0, "start_time": "0.000000", "duration_ts": 36499456, "duration": "2851.520000", "bit_rate": "763692", "bits_per_raw_sample": "8", "nb_frames": "71286", "disposition": {"default": 1, "dub": 0, "original": 0, "comment": 0, "lyrics": 0, "karaoke": 0, "forced": 0, "hearing_impaired": 0, "visual_impaired": 0, "clean_effects": 0, "attached_pic": 0, "timed_thumbnails": 0}, "tags": {"language": "und", "handler_name": "VideoHandler"}}, "audio": {"index": 1, "codec_name": "aac", "codec_long_name": "AAC (Advanced Audio Coding)", "profile": "LC", "codec_type": "audio", "codec_time_base": "1/44100", "codec_tag_string": "mp4a", "codec_tag": "0x6134706d", "sample_fmt": "fltp", "sample_rate": "44100", "channels": 2, "channel_layout": "stereo", "bits_per_sample": 0, "r_frame_rate": "0/0", "avg_frame_rate": "0/0", "time_base": "1/44100", "start_pts": 0, "start_time": "0.000000", "duration_ts": 125752297, "duration": "2851.526009", "bit_rate": "97282", "max_bit_rate": "97282", "nb_frames": "122806", "disposition": {"default": 1, "dub": 0, "original": 0, "comment": 0, "lyrics": 0, "karaoke": 0, "forced": 0, "hearing_impaired": 0, "visual_impaired": 0, "clean_effects": 0, "attached_pic": 0, "timed_thumbnails": 0}, "tags": {"language": "und", "handler_name": "SoundHandler"}}, "bitrate": 868}, "custom_sid": null, "added": "1647298262", "season": 4, "direct_source": ""}, {"id": "258410", "episode_num": 3, "title": "Mr  Robot.S04.E03", "container_extension": "mp4", "info": {"duration_secs": 2839, "duration": "00:47:19", "video": {"index": 0, "codec_name": "h264", "codec_long_name": "H.264 / AVC / MPEG-4 AVC / MPEG-4 part 10", "profile": "High", "codec_type": "video", "codec_time_base": "1001/48000", "codec_tag_string": "avc1", "codec_tag": "0x31637661", "width": 852, "height": 480, "coded_width": 864, "coded_height": 480, "has_b_frames": 2, "sample_aspect_ratio": "640:639", "display_aspect_ratio": "16:9", "pix_fmt": "yuv420p", "level": 30, "chroma_location": "left", "refs": 1, "is_avc": "true", "nal_length_size": "4", "r_frame_rate": "24000/1001", "avg_frame_rate": "24000/1001", "time_base": "1/24000", "start_pts": 0, "start_time": "0.000000", "duration_ts": 68144076, "duration": "2839.336500", "bit_rate": "769785", "bits_per_raw_sample": "8", "nb_frames": "68076", "disposition": {"default": 1, "dub": 0, "original": 0, "comment": 0, "lyrics": 0, "karaoke": 0, "forced": 0, "hearing_impaired": 0, "visual_impaired": 0, "clean_effects": 0, "attached_pic": 0, "timed_thumbnails": 0}, "tags": {"language": "und", "handler_name": "VideoHandler"}}, "audio": {"index": 1, "codec_name": "aac", "codec_long_name": "AAC (Advanced Audio Coding)", "profile": "LC", "codec_type": "audio", "codec_time_base": "1/44100", "codec_tag_string": "mp4a", "codec_tag": "0x6134706d", "sample_fmt": "fltp", "sample_rate": "44100", "channels": 2, "channel_layout": "stereo", "bits_per_sample": 0, "r_frame_rate": "0/0", "avg_frame_rate": "0/0", "time_base": "1/44100", "start_pts": 0, "start_time": "0.000000", "duration_ts": 125215247, "duration": "2839.348005", "bit_rate": "96512", "max_bit_rate": "96512", "nb_frames": "122282", "disposition": {"default": 1, "dub": 0, "original": 0, "comment": 0, "lyrics": 0, "karaoke": 0, "forced": 0, "hearing_impaired": 0, "visual_impaired": 0, "clean_effects": 0, "attached_pic": 0, "timed_thumbnails": 0}, "tags": {"language": "und", "handler_name": "SoundHandler"}}, "bitrate": 874}, "custom_sid": null, "added": "1647298262", "season": 4, "direct_source": ""}, {"id": "258411", "episode_num": 4, "title": "Mr  Robot.S04.E04", "container_extension": "mp4", "info": {"duration_secs": 2951, "duration": "00:49:11", "video": {"index": 0, "codec_name": "h264", "codec_long_name": "H.264 / AVC / MPEG-4 AVC / MPEG-4 part 10", "profile": "High", "codec_type": "video", "codec_time_base": "1001/48000", "codec_tag_string": "avc1", "codec_tag": "0x31637661", "width": 852, "height": 480, "coded_width": 864, "coded_height": 480, "has_b_frames": 2, "sample_aspect_ratio": "640:639", "display_aspect_ratio": "16:9", "pix_fmt": "yuv420p", "level": 30, "chroma_location": "left", "refs": 1, "is_avc": "true", "nal_length_size": "4", "r_frame_rate": "24000/1001", "avg_frame_rate": "24000/1001", "time_base": "1/24000", "start_pts": 0, "start_time": "0.000000", "duration_ts": 70823753, "duration": "2950.989708", "bit_rate": "772014", "bits_per_raw_sample": "8", "nb_frames": "70753", "disposition": {"default": 1, "dub": 0, "original": 0, "comment": 0, "lyrics": 0, "karaoke": 0, "forced": 0, "hearing_impaired": 0, "visual_impaired": 0, "clean_effects": 0, "attached_pic": 0, "timed_thumbnails": 0}, "tags": {"language": "und", "handler_name": "VideoHandler"}}, "audio": {"index": 1, "codec_name": "aac", "codec_long_name": "AAC (Advanced Audio Coding)", "profile": "LC", "codec_type": "audio", "codec_time_base": "1/44100", "codec_tag_string": "mp4a", "codec_tag": "0x6134706d", "sample_fmt": "fltp", "sample_rate": "44100", "channels": 2, "channel_layout": "stereo", "bits_per_sample": 0, "r_frame_rate": "0/0", "avg_frame_rate": "0/0", "time_base": "1/44100", "start_pts": 0, "start_time": "0.000000", "duration_ts": 130139365, "duration": "2951.006009", "bit_rate": "96465", "max_bit_rate": "96465", "nb_frames": "127090", "disposition": {"default": 1, "dub": 0, "original": 0, "comment": 0, "lyrics": 0, "karaoke": 0, "forced": 0, "hearing_impaired": 0, "visual_impaired": 0, "clean_effects": 0, "attached_pic": 0, "timed_thumbnails": 0}, "tags": {"language": "und", "handler_name": "SoundHandler"}}, "bitrate": 876}, "custom_sid": null, "added": "1647298262", "season": 4, "direct_source": ""}, {"id": "258412", "episode_num": 5, "title": "Mr  Robot.S04.E05", "container_extension": "mp4", "info": {"duration_secs": 2954, "duration": "00:49:14", "video": {"index": 0, "codec_name": "h264", "codec_long_name": "H.264 / AVC / MPEG-4 AVC / MPEG-4 part 10", "profile": "High", "codec_type": "video", "codec_time_base": "13295909/664794000", "codec_tag_string": "avc1", "codec_tag": "0x31637661", "width": 1280, "height": 720, "coded_width": 1280, "coded_height": 720, "has_b_frames": 0, "pix_fmt": "yuv420p", "level": 31, "chroma_location": "left", "refs": 1, "is_avc": "true", "nal_length_size": "4", "r_frame_rate": "25/1", "avg_frame_rate": "332397000/13295909", "time_base": "1/90000", "start_pts": 0, "start_time": "0.000000", "duration_ts": 265918180, "duration": "2954.646444", "bit_rate": "2220772", "bits_per_raw_sample": "8", "nb_frames": "73866", "disposition": {"default": 1, "dub": 0, "original": 0, "comment": 0, "lyrics": 0, "karaoke": 0, "forced": 0, "hearing_impaired": 0, "visual_impaired": 0, "clean_effects": 0, "attached_pic": 0, "timed_thumbnails": 0}, "tags": {"language": "und", "handler_name": "VideoHandler"}}, "audio": {"index": 1, "codec_name": "aac", "codec_long_name": "AAC (Advanced Audio Coding)", "profile": "LC", "codec_type": "audio", "codec_time_base": "1/44100", "codec_tag_string": "mp4a", "codec_tag": "0x6134706d", "sample_fmt": "fltp", "sample_rate": "44100", "channels": 2, "channel_layout": "stereo", "bits_per_sample": 0, "r_frame_rate": "0/0", "avg_frame_rate": "0/0", "time_base": "1/44100", "start_pts": 0, "start_time": "0.000000", "duration_ts": 130301951, "duration": "2954.692766", "bit_rate": "262146", "max_bit_rate": "262146", "nb_frames": "127249", "disposition": {"default": 1, "dub": 0, "original": 0, "comment": 0, "lyrics": 0, "karaoke": 0, "forced": 0, "hearing_impaired": 0, "visual_impaired": 0, "clean_effects": 0, "attached_pic": 0, "timed_thumbnails": 0}, "tags": {"language": "und", "handler_name": "SoundHandler"}}, "bitrate": 2487}, "custom_sid": null, "added": "1647298262", "season": 4, "direct_source": ""}, {"id": "258413", "episode_num": 6, "title": "Mr  Robot.S04.E06", "container_extension": "mp4", "info": {"duration_secs": 2819, "duration": "00:46:59", "video": {"index": 0, "codec_name": "h264", "codec_long_name": "H.264 / AVC / MPEG-4 AVC / MPEG-4 part 10", "profile": "High", "codec_type": "video", "codec_time_base": "1001/48000", "codec_tag_string": "avc1", "codec_tag": "0x31637661", "width": 852, "height": 480, "coded_width": 864, "coded_height": 480, "has_b_frames": 2, "sample_aspect_ratio": "640:639", "display_aspect_ratio": "16:9", "pix_fmt": "yuv420p", "level": 30, "chroma_location": "left", "refs": 1, "is_avc": "true", "nal_length_size": "4", "r_frame_rate": "24000/1001", "avg_frame_rate": "24000/1001", "time_base": "1/24000", "start_pts": 0, "start_time": "0.000000", "duration_ts": 67665598, "duration": "2819.399917", "bit_rate": "780023", "bits_per_raw_sample": "8", "nb_frames": "67598", "disposition": {"default": 1, "dub": 0, "original": 0, "comment": 0, "lyrics": 0, "karaoke": 0, "forced": 0, "hearing_impaired": 0, "visual_impaired": 0, "clean_effects": 0, "attached_pic": 0, "timed_thumbnails": 0}, "tags": {"language": "und", "handler_name": "VideoHandler"}}, "audio": {"index": 1, "codec_name": "aac", "codec_long_name": "AAC (Advanced Audio Coding)", "profile": "LC", "codec_type": "audio", "codec_time_base": "1/44100", "codec_tag_string": "mp4a", "codec_tag": "0x6134706d", "sample_fmt": "fltp", "sample_rate": "44100", "channels": 2, "channel_layout": "stereo", "bits_per_sample": 0, "r_frame_rate": "0/0", "avg_frame_rate": "0/0", "time_base": "1/44100", "start_pts": 0, "start_time": "0.000000", "duration_ts": 124336510, "duration": "2819.421995", "bit_rate": "96482", "max_bit_rate": "96482", "nb_frames": "121423", "disposition": {"default": 1, "dub": 0, "original": 0, "comment": 0, "lyrics": 0, "karaoke": 0, "forced": 0, "hearing_impaired": 0, "visual_impaired": 0, "clean_effects": 0, "attached_pic": 0, "timed_thumbnails": 0}, "tags": {"language": "und", "handler_name": "SoundHandler"}}, "bitrate": 884}, "custom_sid": null, "added": "1647298262", "season": 4, "direct_source": ""}, {"id": "258414", "episode_num": 7, "title": "Mr  Robot.S04.E07", "container_extension": "mp4", "info": {"duration_secs": 3383, "duration": "00:56:23", "video": {"index": 0, "codec_name": "h264", "codec_long_name": "H.264 / AVC / MPEG-4 AVC / MPEG-4 part 10", "profile": "High", "codec_type": "video", "codec_time_base": "1001/48000", "codec_tag_string": "avc1", "codec_tag": "0x31637661", "width": 1128, "height": 480, "coded_width": 1136, "coded_height": 480, "has_b_frames": 2, "sample_aspect_ratio": "800:799", "display_aspect_ratio": "40:17", "pix_fmt": "yuv420p", "level": 31, "chroma_location": "left", "refs": 1, "is_avc": "true", "nal_length_size": "4", "r_frame_rate": "24000/1001", "avg_frame_rate": "24000/1001", "time_base": "1/24000", "start_pts": 0, "start_time": "0.000000", "duration_ts": 81209128, "duration": "3383.713667", "bit_rate": "773243", "bits_per_raw_sample": "8", "nb_frames": "81128", "disposition": {"default": 1, "dub": 0, "original": 0, "comment": 0, "lyrics": 0, "karaoke": 0, "forced": 0, "hearing_impaired": 0, "visual_impaired": 0, "clean_effects": 0, "attached_pic": 0, "timed_thumbnails": 0}, "tags": {"language": "und", "handler_name": "VideoHandler"}}, "audio": {"index": 1, "codec_name": "aac", "codec_long_name": "AAC (Advanced Audio Coding)", "profile": "LC", "codec_type": "audio", "codec_time_base": "1/44100", "codec_tag_string": "mp4a", "codec_tag": "0x6134706d", "sample_fmt": "fltp", "sample_rate": "44100", "channels": 2, "channel_layout": "stereo", "bits_per_sample": 0, "r_frame_rate": "0/0", "avg_frame_rate": "0/0", "time_base": "1/44100", "start_pts": 0, "start_time": "0.000000", "duration_ts": 149222537, "duration": "3383.730998", "bit_rate": "96471", "max_bit_rate": "96471", "nb_frames": "145726", "disposition": {"default": 1, "dub": 0, "original": 0, "comment": 0, "lyrics": 0, "karaoke": 0, "forced": 0, "hearing_impaired": 0, "visual_impaired": 0, "clean_effects": 0, "attached_pic": 0, "timed_thumbnails": 0}, "tags": {"language": "und", "handler_name": "SoundHandler"}}, "bitrate": 877}, "custom_sid": null, "added": "1647298262", "season": 4, "direct_source": ""}, {"id": "258415", "episode_num": 8, "title": "Mr  Robot.S04.E08", "container_extension": "mp4", "info": {"duration_secs": 2693, "duration": "00:44:53", "video": {"index": 0, "codec_name": "h264", "codec_long_name": "H.264 / AVC / MPEG-4 AVC / MPEG-4 part 10", "profile": "High", "codec_type": "video", "codec_time_base": "1001/48000", "codec_tag_string": "avc1", "codec_tag": "0x31637661", "width": 852, "height": 480, "coded_width": 864, "coded_height": 480, "has_b_frames": 2, "sample_aspect_ratio": "640:639", "display_aspect_ratio": "16:9", "pix_fmt": "yuv420p", "level": 30, "chroma_location": "left", "refs": 1, "is_avc": "true", "nal_length_size": "4", "r_frame_rate": "24000/1001", "avg_frame_rate": "24000/1001", "time_base": "1/24000", "start_pts": 0, "start_time": "0.000000", "duration_ts": 64648584, "duration": "2693.691000", "bit_rate": "766885", "bits_per_raw_sample": "8", "nb_frames": "64584", "disposition": {"default": 1, "dub": 0, "original": 0, "comment": 0, "lyrics": 0, "karaoke": 0, "forced": 0, "hearing_impaired": 0, "visual_impaired": 0, "clean_effects": 0, "attached_pic": 0, "timed_thumbnails": 0}, "tags": {"language": "und", "handler_name": "VideoHandler"}}, "audio": {"index": 1, "codec_name": "aac", "codec_long_name": "AAC (Advanced Audio Coding)", "profile": "LC", "codec_type": "audio", "codec_time_base": "1/44100", "codec_tag_string": "mp4a", "codec_tag": "0x6134706d", "sample_fmt": "fltp", "sample_rate": "44100", "channels": 2, "channel_layout": "stereo", "bits_per_sample": 0, "r_frame_rate": "0/0", "avg_frame_rate": "0/0", "time_base": "1/44100", "start_pts": 0, "start_time": "0.000000", "duration_ts": 118792391, "duration": "2693.705011", "bit_rate": "96467", "max_bit_rate": "96467", "nb_frames": "116009", "disposition": {"default": 1, "dub": 0, "original": 0, "comment": 0, "lyrics": 0, "karaoke": 0, "forced": 0, "hearing_impaired": 0, "visual_impaired": 0, "clean_effects": 0, "attached_pic": 0, "timed_thumbnails": 0}, "tags": {"language": "und", "handler_name": "SoundHandler"}}, "bitrate": 871}, "custom_sid": null, "added": "1647298262", "season": 4, "direct_source": ""}, {"id": "258416", "episode_num": 9, "title": "Mr  Robot.S04.E09", "container_extension": "mp4", "info": {"duration_secs": 2826, "duration": "00:47:06", "video": {"index": 0, "codec_name": "h264", "codec_long_name": "H.264 / AVC / MPEG-4 AVC / MPEG-4 part 10", "profile": "High", "codec_type": "video", "codec_time_base": "1001/48000", "codec_tag_string": "avc1", "codec_tag": "0x31637661", "width": 852, "height": 480, "coded_width": 864, "coded_height": 480, "has_b_frames": 2, "sample_aspect_ratio": "640:639", "display_aspect_ratio": "16:9", "pix_fmt": "yuv420p", "level": 30, "chroma_location": "left", "refs": 1, "is_avc": "true", "nal_length_size": "4", "r_frame_rate": "24000/1001", "avg_frame_rate": "24000/1001", "time_base": "1/24000", "start_pts": 0, "start_time": "0.000000", "duration_ts": 67843776, "duration": "2826.824000", "bit_rate": "773784", "bits_per_raw_sample": "8", "nb_frames": "67776", "disposition": {"default": 1, "dub": 0, "original": 0, "comment": 0, "lyrics": 0, "karaoke": 0, "forced": 0, "hearing_impaired": 0, "visual_impaired": 0, "clean_effects": 0, "attached_pic": 0, "timed_thumbnails": 0}, "tags": {"language": "und", "handler_name": "VideoHandler"}}, "audio": {"index": 1, "codec_name": "aac", "codec_long_name": "AAC (Advanced Audio Coding)", "profile": "LC", "codec_type": "audio", "codec_time_base": "1/44100", "codec_tag_string": "mp4a", "codec_tag": "0x6134706d", "sample_fmt": "fltp", "sample_rate": "44100", "channels": 2, "channel_layout": "stereo", "bits_per_sample": 0, "r_frame_rate": "0/0", "avg_frame_rate": "0/0", "time_base": "1/44100", "start_pts": 0, "start_time": "0.000000", "duration_ts": 124663909, "duration": "2826.846009", "bit_rate": "96571", "max_bit_rate": "96571", "nb_frames": "121743", "disposition": {"default": 1, "dub": 0, "original": 0, "comment": 0, "lyrics": 0, "karaoke": 0, "forced": 0, "hearing_impaired": 0, "visual_impaired": 0, "clean_effects": 0, "attached_pic": 0, "timed_thumbnails": 0}, "tags": {"language": "und", "handler_name": "SoundHandler"}}, "bitrate": 878}, "custom_sid": null, "added": "1647298262", "season": 4, "direct_source": ""}, {"id": "258417", "episode_num": 10, "title": "Mr  Robot.S04.E10", "container_extension": "mp4", "info": {"duration_secs": 2715, "duration": "00:45:15", "video": {"index": 0, "codec_name": "h264", "codec_long_name": "H.264 / AVC / MPEG-4 AVC / MPEG-4 part 10", "profile": "High", "codec_type": "video", "codec_time_base": "1001/48000", "codec_tag_string": "avc1", "codec_tag": "0x31637661", "width": 852, "height": 480, "coded_width": 864, "coded_height": 480, "has_b_frames": 2, "sample_aspect_ratio": "640:639", "display_aspect_ratio": "16:9", "pix_fmt": "yuv420p", "level": 30, "chroma_location": "left", "refs": 1, "is_avc": "true", "nal_length_size": "4", "r_frame_rate": "24000/1001", "avg_frame_rate": "24000/1001", "time_base": "1/24000", "start_pts": 0, "start_time": "0.000000", "duration_ts": 65177112, "duration": "2715.713000", "bit_rate": "766783", "bits_per_raw_sample": "8", "nb_frames": "65112", "disposition": {"default": 1, "dub": 0, "original": 0, "comment": 0, "lyrics": 0, "karaoke": 0, "forced": 0, "hearing_impaired": 0, "visual_impaired": 0, "clean_effects": 0, "attached_pic": 0, "timed_thumbnails": 0}, "tags": {"language": "und", "handler_name": "VideoHandler"}}, "audio": {"index": 1, "codec_name": "aac", "codec_long_name": "AAC (Advanced Audio Coding)", "profile": "LC", "codec_type": "audio", "codec_time_base": "1/44100", "codec_tag_string": "mp4a", "codec_tag": "0x6134706d", "sample_fmt": "fltp", "sample_rate": "44100", "channels": 2, "channel_layout": "stereo", "bits_per_sample": 0, "r_frame_rate": "0/0", "avg_frame_rate": "0/0", "time_base": "1/44100", "start_pts": 0, "start_time": "0.000000", "duration_ts": 119764222, "duration": "2715.741995", "bit_rate": "96558", "max_bit_rate": "96558", "nb_frames": "116958", "disposition": {"default": 1, "dub": 0, "original": 0, "comment": 0, "lyrics": 0, "karaoke": 0, "forced": 0, "hearing_impaired": 0, "visual_impaired": 0, "clean_effects": 0, "attached_pic": 0, "timed_thumbnails": 0}, "tags": {"language": "und", "handler_name": "SoundHandler"}}, "bitrate": 871}, "custom_sid": null, "added": "1647298262", "season": 4, "direct_source": ""}, {"id": "258418", "episode_num": 11, "title": "Mr  Robot.S04.E11", "container_extension": "mp4", "info": {"duration_secs": 3125, "duration": "00:52:05", "video": {"index": 0, "codec_name": "h264", "codec_long_name": "H.264 / AVC / MPEG-4 AVC / MPEG-4 part 10", "profile": "High", "codec_type": "video", "codec_time_base": "1001/48000", "codec_tag_string": "avc1", "codec_tag": "0x31637661", "width": 852, "height": 480, "coded_width": 864, "coded_height": 480, "has_b_frames": 2, "sample_aspect_ratio": "640:639", "display_aspect_ratio": "16:9", "pix_fmt": "yuv420p", "level": 30, "chroma_location": "left", "refs": 1, "is_avc": "true", "nal_length_size": "4", "r_frame_rate": "24000/1001", "avg_frame_rate": "24000/1001", "time_base": "1/24000", "start_pts": 0, "start_time": "0.000000", "duration_ts": 75003929, "duration": "3125.163708", "bit_rate": "769420", "bits_per_raw_sample": "8", "nb_frames": "74929", "disposition": {"default": 1, "dub": 0, "original": 0, "comment": 0, "lyrics": 0, "karaoke": 0, "forced": 0, "hearing_impaired": 0, "visual_impaired": 0, "clean_effects": 0, "attached_pic": 0, "timed_thumbnails": 0}, "tags": {"language": "und", "handler_name": "VideoHandler"}}, "audio": {"index": 1, "codec_name": "aac", "codec_long_name": "AAC (Advanced Audio Coding)", "profile": "LC", "codec_type": "audio", "codec_time_base": "1/44100", "codec_tag_string": "mp4a", "codec_tag": "0x6134706d", "sample_fmt": "fltp", "sample_rate": "44100", "channels": 2, "channel_layout": "stereo", "bits_per_sample": 0, "r_frame_rate": "0/0", "avg_frame_rate": "0/0", "time_base": "1/44100", "start_pts": 0, "start_time": "0.000000", "duration_ts": 137821011, "duration": "3125.192993", "bit_rate": "96565", "max_bit_rate": "96565", "nb_frames": "134592", "disposition": {"default": 1, "dub": 0, "original": 0, "comment": 0, "lyrics": 0, "karaoke": 0, "forced": 0, "hearing_impaired": 0, "visual_impaired": 0, "clean_effects": 0, "attached_pic": 0, "timed_thumbnails": 0}, "tags": {"language": "und", "handler_name": "SoundHandler"}}, "bitrate": 873}, "custom_sid": null, "added": "1647298262", "season": 4, "direct_source": ""}, {"id": "258419", "episode_num": 12, "title": "Mr  Robot.S04.E12", "container_extension": "mp4", "info": {"duration_secs": 2646, "duration": "00:44:06", "video": {"index": 0, "codec_name": "h264", "codec_long_name": "H.264 / AVC / MPEG-4 AVC / MPEG-4 part 10", "profile": "High", "codec_type": "video", "codec_time_base": "1001/48000", "codec_tag_string": "avc1", "codec_tag": "0x31637661", "width": 852, "height": 480, "coded_width": 864, "coded_height": 480, "has_b_frames": 2, "sample_aspect_ratio": "640:639", "display_aspect_ratio": "16:9", "pix_fmt": "yuv420p", "level": 30, "chroma_location": "left", "refs": 1, "is_avc": "true", "nal_length_size": "4", "r_frame_rate": "24000/1001", "avg_frame_rate": "24000/1001", "time_base": "1/24000", "start_pts": 0, "start_time": "0.000000", "duration_ts": 63508445, "duration": "2646.185208", "bit_rate": "762200", "bits_per_raw_sample": "8", "nb_frames": "63445", "disposition": {"default": 1, "dub": 0, "original": 0, "comment": 0, "lyrics": 0, "karaoke": 0, "forced": 0, "hearing_impaired": 0, "visual_impaired": 0, "clean_effects": 0, "attached_pic": 0, "timed_thumbnails": 0}, "tags": {"language": "und", "handler_name": "VideoHandler"}}, "audio": {"index": 1, "codec_name": "aac", "codec_long_name": "AAC (Advanced Audio Coding)", "profile": "LC", "codec_type": "audio", "codec_time_base": "1/44100", "codec_tag_string": "mp4a", "codec_tag": "0x6134706d", "sample_fmt": "fltp", "sample_rate": "44100", "channels": 2, "channel_layout": "stereo", "bits_per_sample": 0, "r_frame_rate": "0/0", "avg_frame_rate": "0/0", "time_base": "1/44100", "start_pts": 0, "start_time": "0.000000", "duration_ts": 116697200, "duration": "2646.195011", "bit_rate": "96546", "max_bit_rate": "96546", "nb_frames": "113963", "disposition": {"default": 1, "dub": 0, "original": 0, "comment": 0, "lyrics": 0, "karaoke": 0, "forced": 0, "hearing_impaired": 0, "visual_impaired": 0, "clean_effects": 0, "attached_pic": 0, "timed_thumbnails": 0}, "tags": {"language": "und", "handler_name": "SoundHandler"}}, "bitrate": 866}, "custom_sid": null, "added": "1647298262", "season": 4, "direct_source": ""}, {"id": "258420", "episode_num": 13, "title": "Mr  Robot.S04.E13", "container_extension": "mp4", "info": {"duration_secs": 3056, "duration": "00:50:56", "video": {"index": 0, "codec_name": "h264", "codec_long_name": "H.264 / AVC / MPEG-4 AVC / MPEG-4 part 10", "profile": "High", "codec_type": "video", "codec_time_base": "1001/48000", "codec_tag_string": "avc1", "codec_tag": "0x31637661", "width": 852, "height": 480, "coded_width": 864, "coded_height": 480, "has_b_frames": 2, "sample_aspect_ratio": "640:639", "display_aspect_ratio": "16:9", "pix_fmt": "yuv420p", "level": 30, "chroma_location": "left", "refs": 1, "is_avc": "true", "nal_length_size": "4", "r_frame_rate": "24000/1001", "avg_frame_rate": "24000/1001", "time_base": "1/24000", "start_pts": 0, "start_time": "0.000000", "duration_ts": 73353280, "duration": "3056.386667", "bit_rate": "775794", "bits_per_raw_sample": "8", "nb_frames": "73280", "disposition": {"default": 1, "dub": 0, "original": 0, "comment": 0, "lyrics": 0, "karaoke": 0, "forced": 0, "hearing_impaired": 0, "visual_impaired": 0, "clean_effects": 0, "attached_pic": 0, "timed_thumbnails": 0}, "tags": {"language": "und", "handler_name": "VideoHandler"}}, "audio": {"index": 1, "codec_name": "aac", "codec_long_name": "AAC (Advanced Audio Coding)", "profile": "LC", "codec_type": "audio", "codec_time_base": "1/44100", "codec_tag_string": "mp4a", "codec_tag": "0x6134706d", "sample_fmt": "fltp", "sample_rate": "44100", "channels": 2, "channel_layout": "stereo", "bits_per_sample": 0, "r_frame_rate": "0/0", "avg_frame_rate": "0/0", "time_base": "1/44100", "start_pts": 0, "start_time": "0.000000", "duration_ts": 134787857, "duration": "3056.413991", "bit_rate": "96546", "max_bit_rate": "96546", "nb_frames": "131630", "disposition": {"default": 1, "dub": 0, "original": 0, "comment": 0, "lyrics": 0, "karaoke": 0, "forced": 0, "hearing_impaired": 0, "visual_impaired": 0, "clean_effects": 0, "attached_pic": 0, "timed_thumbnails": 0}, "tags": {"language": "und", "handler_name": "SoundHandler"}}, "bitrate": 880}, "custom_sid": null, "added": "1647298262", "season": 4, "direct_source": ""}]};
                const config = { host: "http://teratv.info:80", u: "M89754etty", p: "H76533ettfg" };
                
                const selector = document.getElementById('seasonSelector');
                const area = document.getElementById('episodesArea');
                const playerContainer = document.getElementById('videoContainer');
                const player = document.getElementById('mainPlayer');
                const source = document.getElementById('videoSource');
                const nowPlayingLabel = document.getElementById('nowPlaying');

                // تعبئة المواسم
                Object.keys(episodesData).sort((a,b)=>a-b).forEach(s => {
                    let opt = document.createElement('option');
                    opt.value = s; opt.innerHTML = "الموسم " + s;
                    selector.appendChild(opt);
                });

                function loadEpisodes() {
                    const sNum = selector.value;
                    area.innerHTML = "";
                    if(!sNum) return;

                    episodesData[sNum].forEach(ep => {
                        const link = `${config.host}/series/${config.u}/${config.p}/${ep.id}.${ep.container_extension || 'mp4'}`;
                        const epTitle = `الموسم ${sNum} - حلقة ${ep.episode_num}`;
                        
                        const item = document.createElement('div');
                        item.className = 'episode';
                        item.innerHTML = `<span>${epTitle}</span><div class="play-btn">▶ تشغيل</div>`;
                        item.onclick = () => playVideo(link, epTitle, item);
                        area.appendChild(item);
                    });
                }

                function playVideo(url, title, element) {
                    // إظهار المشغل وتحديث المصدر
                    playerContainer.style.display = 'block';
                    source.src = url;
                    player.load();
                    player.play();
                    nowPlayingLabel.innerText = "أنت تشاهد الآن: " + title;
                    
                    // تمييز الحلقة المختارة
                    document.querySelectorAll('.episode').forEach(el => el.classList.remove('active-episode'));
                    element.classList.add('active-episode');
                    
                    // التمرير لأعلى المشغل
                    window.scrollTo({ top: 0, behavior: 'smooth' });
                }
            </script>
        </body>
        </html>
        